<svg id="OBJECTS" xmlns="http://www.w3.org/2000/svg" xmlns:xlink="http://www.w3.org/1999/xlink" viewBox="0 0 696.26 597.45"><defs><style>.cls-1,.cls-2{fill:none;}.cls-2{stroke:#fff;stroke-linecap:round;stroke-miterlimit:10;stroke-width:5.55px;}.cls-3{fill:#efbc2e;}.cls-4{fill:#92db83;}.cls-5{opacity:0.2;}.cls-6{fill:url(#Unnamed_Pattern);}</style><pattern id="Unnamed_Pattern" data-name="Unnamed Pattern" width="176.53" height="176.53" patternTransform="translate(-21.77 -151.48) rotate(-45) scale(0.07)" patternUnits="userSpaceOnUse" viewBox="0 0 176.53 176.53"><rect class="cls-1" width="176.53" height="176.53"/><line class="cls-2" x1="-56.2" x2="198.82"/><line class="cls-2" x1="-56.2" y1="35.31" x2="198.82" y2="35.31"/><line class="cls-2" x1="-56.2" y1="70.61" x2="198.82" y2="70.61"/><line class="cls-2" x1="-56.2" y1="105.92" x2="198.82" y2="105.92"/><line class="cls-2" x1="-56.2" y1="141.23" x2="198.82" y2="141.23"/><line class="cls-2" x1="-56.2" y1="176.53" x2="198.82" y2="176.53"/></pattern></defs><title>3273303</title><path class="cls-3" d="M586.52,410.66C552.19,449,498,487.12,437.13,514.38,312,570.49,159,580.33,94.19,449.48,58.36,377.18,117.82,340.57,137,276.81S95.71,154.63,118.48,88.23a95.24,95.24,0,0,1,32.28-45.12A89.68,89.68,0,0,1,220,25.71C240.8,29.12,260.42,37.57,279.79,46,311.53,59.84,342.74,72.82,375,82.9c56.89,17.75,113.6,14,170.71,27.05,30.64,7,60.59,21,81.91,44.63C700.15,234.9,647.79,342.38,586.52,410.66Z"/><path class="cls-4" d="M529.16,68.31c24.4,2.41,45.57,9.51,62.92,21.12,39,26.06,58.43,65.29,57.86,116.61-.45,40.92-14.15,88.85-38.56,135C582.79,395,529,452.91,467.56,495.88c-69.88,48.85-141.31,72.5-201.13,66.59-45.07-4.46-83.67-25.26-114.73-61.83-33.11-39-23-72.91-11.3-112.17,5.84-19.57,11.88-39.81,13-62.19,1.77-34.15-15.38-61.94-32-88.82-17.48-28.33-34-55.08-30.93-89.22,3.87-43.26,37-77.38,78.84-81.14a166.14,166.14,0,0,1,31.21.48c10.43,1,21,2.73,30.32,4.23,21.47,3.46,46.77,7.32,71.77,9.79,10.5,1,20.29,1.78,29.93,2.27,33.84,1.71,66.29-3.29,97.68-8.12,24.26-3.74,49.34-7.6,74.72-8.27a193.62,193.62,0,0,1,24.14.83Zm.51-5.35a199.49,199.49,0,0,0-24.79-.85c-58.51,1.55-112.59,19.4-172,16.39-9.92-.5-19.8-1.27-29.69-2.25-23.71-2.34-47.4-5.87-71.45-9.74-10.17-1.64-20.39-3.26-30.64-4.27a171.2,171.2,0,0,0-32.17-.49c-44.66,4-79.5,40.19-83.6,86C79.06,217.82,151.66,259.37,148.2,326s-52.41,117-.46,178.16c34,40.06,74.82,59.36,118.19,63.65C400.69,581.13,560,449.26,616,343.57,659.15,262,684.36,144.74,595,84.93c-19.4-13-42.1-19.68-65.28-22Z"/><g class="cls-5"><path class="cls-6" d="M554.42,426.35c-28.16,31.39-69.71,62.73-117.29,88C312,570.49,159,580.33,94.19,449.48,58.36,377.18,117.82,340.57,137,276.81S95.71,154.63,118.48,88.23a95.24,95.24,0,0,1,32.28-45.12,89,89,0,0,1,37.15-1.71c20.78,3.41,40.42,11.86,59.79,20.29,31.74,13.83,62.92,26.82,95.22,36.9,56.89,17.74,113.6,14,170.71,27.06,30.65,7,60.6,21,81.93,44.62C668,250.61,615.67,358.06,554.42,426.35Z"/></g><path class="cls-4" d="M443.38,552.32c1.74,15.21,19.3,23.87,32.93,19.47,24.07-7.76,24.4-45.5-3.22-47.13C458,523.76,441.47,535.53,443.38,552.32Z"/></svg>