<svg xmlns="http://www.w3.org/2000/svg" xmlns:xlink="http://www.w3.org/1999/xlink" viewBox="0 0 3000 1506"><defs><style>.cls-1,.cls-2{fill:none;}.cls-2{stroke:#fff;stroke-linecap:round;stroke-miterlimit:10;stroke-width:5.55px;}.cls-3{fill:#fff;}.cls-4{clip-path:url(#clip-path);}.cls-5{fill:url(#linear-gradient);}.cls-6{opacity:0.2;}.cls-7{fill:url(#Unnamed_Pattern);}.cls-8{fill:url(#linear-gradient-2);}.cls-9{fill:url(#linear-gradient-3);}.cls-10{fill:url(#linear-gradient-4);}.cls-11{fill:url(#Unnamed_Pattern-3);}.cls-12{fill:#92db83;}.cls-13{fill:url(#linear-gradient-5);}.cls-14{fill:#f6d76f;}</style><clipPath id="clip-path"><rect class="cls-1" y="-443" width="3199" height="1949"/></clipPath><linearGradient id="linear-gradient" x1="2138.76" y1="1511.96" x2="3494.57" y2="1008" gradientTransform="translate(333.42 -530.29) rotate(11.71)" gradientUnits="userSpaceOnUse"><stop offset="0.01" stop-color="#fad76e"/><stop offset="0.25" stop-color="#fad26e"/><stop offset="0.51" stop-color="#fac56e"/><stop offset="0.78" stop-color="#faaf6e"/><stop offset="1" stop-color="#fa976e"/></linearGradient><pattern id="Unnamed_Pattern" data-name="Unnamed Pattern" width="176.53" height="176.53" patternTransform="matrix(0.25, -0.16, 0.16, 0.25, 142.38, -774.38)" patternUnits="userSpaceOnUse" viewBox="0 0 176.53 176.53"><rect class="cls-1" width="176.53" height="176.53"/><line class="cls-2" x1="-56.2" x2="198.82"/><line class="cls-2" x1="-56.2" y1="35.31" x2="198.82" y2="35.31"/><line class="cls-2" x1="-56.2" y1="70.61" x2="198.82" y2="70.61"/><line class="cls-2" x1="-56.2" y1="105.92" x2="198.82" y2="105.92"/><line class="cls-2" x1="-56.2" y1="141.23" x2="198.82" y2="141.23"/><line class="cls-2" x1="-56.2" y1="176.53" x2="198.82" y2="176.53"/></pattern><linearGradient id="linear-gradient-2" x1="1984.58" y1="1687.89" x2="3573.47" y2="915.8" gradientTransform="translate(333.68 -530.21) rotate(11.71)" gradientUnits="userSpaceOnUse"><stop offset="0.01" stop-color="#92db83"/><stop offset="0.21" stop-color="#92d884"/><stop offset="0.36" stop-color="#91ce87"/><stop offset="0.49" stop-color="#90be8d"/><stop offset="0.62" stop-color="#8fa895"/><stop offset="0.73" stop-color="#8d8aa0"/><stop offset="0.85" stop-color="#8b66ac"/><stop offset="0.95" stop-color="#883cbb"/><stop offset="1" stop-color="#8726c3"/></linearGradient><linearGradient id="linear-gradient-3" x1="2951.88" y1="1039.39" x2="3204.45" y2="1039.39" gradientUnits="userSpaceOnUse"><stop offset="0.01" stop-color="#fad76e"/><stop offset="0.91" stop-color="#fad76e"/></linearGradient><linearGradient id="linear-gradient-4" x1="-826.81" y1="542.13" x2="427.45" y2="75.91" gradientTransform="translate(26.86 17.63) rotate(4.83)" gradientUnits="userSpaceOnUse"><stop offset="0.01" stop-color="#fd9f57"/><stop offset="0.39" stop-color="#f449d4"/><stop offset="0.45" stop-color="#f66eba"/><stop offset="0.51" stop-color="#f78ea2"/><stop offset="0.58" stop-color="#f8a98f"/><stop offset="0.65" stop-color="#f9bd80"/><stop offset="0.74" stop-color="#facc76"/><stop offset="0.84" stop-color="#fad470"/><stop offset="1" stop-color="#fad76e"/></linearGradient><pattern id="Unnamed_Pattern-3" data-name="Unnamed Pattern" width="176.53" height="176.53" patternTransform="translate(-68.01 -697.56) rotate(-40.17) scale(0.31)" patternUnits="userSpaceOnUse" viewBox="0 0 176.53 176.53"><rect class="cls-1" width="176.53" height="176.53"/><line class="cls-2" x1="-56.2" x2="198.82"/><line class="cls-2" x1="-56.2" y1="35.31" x2="198.82" y2="35.31"/><line class="cls-2" x1="-56.2" y1="70.61" x2="198.82" y2="70.61"/><line class="cls-2" x1="-56.2" y1="105.92" x2="198.82" y2="105.92"/><line class="cls-2" x1="-56.2" y1="141.23" x2="198.82" y2="141.23"/><line class="cls-2" x1="-56.2" y1="176.53" x2="198.82" y2="176.53"/></pattern><linearGradient id="linear-gradient-5" x1="1900.85" y1="-32.89" x2="2194.65" y2="-263.58" gradientTransform="matrix(-1, 0.05, 0.05, 1, 2152.6, 58.01)" gradientUnits="userSpaceOnUse"><stop offset="0.01" stop-color="#fad76e"/><stop offset="0.69" stop-color="#fad76e"/><stop offset="1" stop-color="#bf30fa"/><stop offset="1" stop-color="#8726c3"/></linearGradient></defs><title>bg-auth</title><g id="whitebg"><rect class="cls-3" x="-49" y="-50" width="3097" height="1605"/></g><g id="orange_objects" data-name="orange objects"><g class="cls-4"><path class="cls-3" d="M2998.23,25.06s-53.74-47.5-104.53-5.41c-48,39.8-44.46,35.43-80,24.4s-74.64-28.51-93.5,4.11-57.57-1.28-53.32,4h0l1,38.77,332-4.4Z"/></g></g><g id="orange"><path class="cls-5" d="M3235.66,1571.94c-65,46.75-160.78,87-263.28,108.6-210.91,44.56-450.39,10.38-509.66-207.77C2430,1352.21,2533.3,1316.05,2582.91,1226s-25.62-197.53,30.33-290.4a146.83,146.83,0,0,1,64-57.72,144.1,144.1,0,0,1,112.45-4.06c31.06,11.8,58.74,30.83,86,49.76,44.72,31,88.87,60.63,135.64,86.18,82.36,45,171.18,57.44,255.34,95.49,45.15,20.45,87.07,51.09,112.61,93.57C3466.22,1343.22,3351.69,1488.56,3235.66,1571.94Z"/><g class="cls-6"><path class="cls-7" d="M3181.15,1585.32c-53.33,38.34-127.34,72.3-208.77,95.22-210.91,44.56-450.39,10.38-509.66-207.77C2430,1352.21,2533.3,1316.05,2582.91,1226s-25.62-197.53,30.33-290.4a146.83,146.83,0,0,1,64-57.72,143.82,143.82,0,0,1,57.94,9.32c31,11.8,58.74,30.84,86,49.76,44.72,31,88.85,60.62,135.61,86.17,82.37,45,171.18,57.45,255.34,95.52,45.16,20.42,87.07,51.07,112.64,93.55C3411.69,1356.62,3297.16,1501.94,3181.15,1585.32Z"/></g><path class="cls-8" d="M3254.11,1037.12c36.95,11.46,67.44,29,90.61,52,52.06,51.8,69.87,117.22,53,194.45-13.5,61.58-49.65,129.5-101.8,191.24-61.07,72.31-162.27,142.43-270.69,187.55-123.26,51.3-241,64.09-331.63,36-68.26-21.17-121.41-64.91-158-130-39-69.43-12.74-117.34,17.63-172.83,15.14-27.65,30.8-56.25,39.59-89.63,13.42-50.94-4.39-98.37-21.61-144.23-18.14-48.33-35.28-94-19.89-144.5,19.51-64,81.42-104.87,147.21-97.14,14.6,1.72,30.33,5.23,48.07,10.73,15.8,4.9,31.6,10.85,45.55,16.1,32.08,12.08,70,26,107.84,37.75,15.89,4.93,30.79,9.19,45.54,13,51.75,13.42,103.47,16.28,153.49,19,38.65,2.14,78.62,4.35,118,11.46a314.94,314.94,0,0,1,37.06,9Zm2.45-7.9a322.18,322.18,0,0,0-38-9.23c-90.9-16.4-180.06-6.8-270.92-30.37q-22.76-5.91-45.17-12.91c-35.92-11.13-71.42-24.05-107.38-37.59-15.19-5.72-30.49-11.45-46-16.26-16.22-5-32.69-9.06-49.55-11-70.27-8.26-135.43,35.16-156.09,102.94-31.6,103.7,67.59,189.63,41.41,289s-117.58,159.69-56.43,268.62c40,71.32,97,113.52,162.72,133.88,204.08,63.26,491.57-84.6,611.09-226.12,92.19-109.16,167.83-278,48.37-396.89-25.92-25.79-58.9-43.18-94-54.06Z"/><text/><text/><path class="cls-9" d="M2954,1057.17c6.23,29.43,30.11,54.39,59.24,61.9,40.73,10.51,81.95-11.23,123.23-19.33,17.5-3.43,36.49-4.82,50.49-15.87,17.93-14.13,21.9-41.4,12.88-62.37-20-46.41-91.59-63.25-137.79-64.54C3003.81,955.32,2939.46,988.77,2954,1057.17Z"/><path class="cls-10" d="M348.59,434.05a247.41,247.41,0,0,1-37,76.11C185.27,686.12-91,735.79-285.52,660.52-436.4,602.11-543.6,477-578.16,319.6c-21.88-99.68-8.91-204,44.74-285A299.2,299.2,0,0,1-435.74-58c64.79-38.43,148.79-9.16,211.32,32.83S-75.11,58.29-7,90.42c84.8,40,180.31,56.74,258.7,110.15,46.84,31.92,86.45,77.82,100,132.87C359.82,366.54,357.93,401.19,348.59,434.05Z"/><g class="cls-6"><path class="cls-11" d="M348.59,434.05c-.19.29-.38.57-.59.86-126.35,176-402.65,225.64-597.11,150.36C-400,526.87-507.22,401.71-541.75,244.38c-15.57-70.93-13.5-144.21,8.33-209.79A299.2,299.2,0,0,1-435.74-58c64.79-38.43,148.79-9.16,211.32,32.83S-75.11,58.29-7,90.42c84.8,40,180.31,56.74,258.7,110.15,46.84,31.92,86.45,77.82,100,132.87C359.82,366.54,357.93,401.19,348.59,434.05Z"/></g><path class="cls-12" d="M-321.27-171.26c83.45-7.18,153.15,69.55,179.25,102.88C-94.26-7.39-25.81,58.5,40.21,120.75c28.36,26.75,59.9,50.75,90.4,73.95,47.57,36.19,96.76,73.62,133.92,121.76,40,51.76,59.8,109.47,55.86,162.51-4.43,59.57-40.3,119.52-96,160.35C162.92,684.44,84.9,712.21-1.19,719.62-149.51,732.39-310,684.54-420,594.75c-64.45-52.6-114.93-119.9-146-194.62s-43.09-157.72-34.89-240.23C-593,80.68-565.8,8.38-522.22-49.17c46.67-61.62,110.41-102.95,184.33-119.52a126.67,126.67,0,0,1,16.62-2.57Zm-.58-6.72a132.1,132.1,0,0,0-17.51,2.7C-499.23-139.45-592,2.8-607.59,159.24-624.52,329.56-557.44,491.29-424.27,600-313.62,690.29-151.56,739.34-.61,726.35c83.22-7.17,163.08-33.2,229-81.59,53.39-39.17,93.78-99.26,98.69-165.29,4.46-60.07-20.44-119.46-57.25-167.14-61.59-79.78-152.55-128.14-225-196.49C-13.38,61-87.38-9.54-136.71-72.54-182.34-130.81-250.14-184.15-321.85-178Z"/><path class="cls-13" d="M-33.13-26.42C-31.79,2.9-15.57,29.63,8.57,46.13,52.15,75.89,176.25,71.56,178.16-1.29c1.08-41.51-45.83-67.78-71-94.25-19.25-20.21-40.56-34.69-69.65-26.93C-4.2-111.36-35.1-69.37-33.13-26.42Z"/><path class="cls-14" d="M203.26,95.91c.78,24.18,28,40.22,50.55,35.16,39.87-9,45.43-68.36,1.08-74.7C230.68,52.91,202.41,69.19,203.26,95.91Z"/></g></svg>