<svg xmlns="http://www.w3.org/2000/svg" xmlns:xlink="http://www.w3.org/1999/xlink" viewBox="0 0 500 500"><defs><style>.cls-1{isolation:isolate;}.cls-2{fill:#fff;}.cls-14,.cls-2{opacity:0.5;}.cls-10,.cls-14,.cls-2,.cls-20{mix-blend-mode:multiply;}.cls-3{fill:#5c483c;}.cls-4{fill:url(#Degradado_sin_nombre_8);}.cls-5{fill:#5c7811;}.cls-6{fill:#7f9443;}.cls-7{fill:#6faa2e;}.cls-8{fill:#8dbc5a;}.cls-9{fill:#f6e219;}.cls-10{opacity:0.69;}.cls-11{fill:#fae378;}.cls-12{fill:#b5d959;}.cls-13{fill:#c4e17c;}.cls-14{fill:#acbbbe;}.cls-15{fill:#cf3e32;}.cls-16{fill:#ff6a45;}.cls-17{fill:#fbc532;}.cls-18{fill:#fef7d8;}.cls-19{fill:#ff9c30;}.cls-20{fill:#f5d7c1;}.cls-21{fill:#ffaf58;}</style><linearGradient id="Degradado_sin_nombre_8" x1="471.87" y1="481.27" x2="82.46" y2="71.05" gradientUnits="userSpaceOnUse"><stop offset="0" stop-color="#76655b"/><stop offset="1" stop-color="#29201b"/></linearGradient></defs><title>main_image</title><g class="cls-1"><g id="OBJECTS"><ellipse class="cls-2" cx="257.12" cy="261.07" rx="201.7" ry="202.53"/><ellipse class="cls-3" cx="238.34" cy="235.26" rx="201.7" ry="202.53"/><ellipse class="cls-4" cx="238.34" cy="235.26" rx="187.86" ry="188.63"/><path class="cls-5" d="M240.31,227.15A52.26,52.26,0,0,0,276.53,244a.7.7,0,0,0,.49.19c41.18.11,89.51-7,119.38-38.3,4.06-4.25,11.91-11.6,10.3-18.35-1.43-6-8.6-7-12.72-10.41-7.13-5.9,3.41-12.29,2.2-19-.62-3.46-3.7-5-6.36-6.72-4.18-2.74-5.12-6.12-4.44-10.88.87-6,3.51-12.42.13-18.14a12.77,12.77,0,0,0-7.25-5.69c-3.39-1-6.72.32-10.11-.24-5.73-1-4.42-7-6.38-11a8,8,0,0,0-5.67-4.31c-7.57-1.62-13,5.29-17,10.68-12.34,16.92-19.75,36.72-35.91,50.71-14.63,12.66-32.5,20.59-48.62,31.06C243.11,201,227.64,213.18,240.31,227.15Z"/><path class="cls-6" d="M245,220.62c2.25,0,4.47-.08,6.68-.19,21.32-9,42.32-20.94,58.36-37.82,6.87-7.22,11.51-15.43,15.39-24.33-.38.09-.73-.41-.34-.66l.86-.56c.68-1.6,1.35-3.22,2-4.86,3.81-9.66,7.52-20.16,15.39-27.31.41-.38,1,.28.65.69-7.4,9.11-11.49,19.31-15.81,30,4.84-3.2,9.57-6.57,14.07-10.22,5.47-4.43,10.18-9.69,15.61-14.12.25-.21.55.16.38.4-3.86,5.49-9.4,10.05-14.56,14.26a124.89,124.89,0,0,1-16.1,11.16,1.21,1.21,0,0,0-.05.14,82.76,82.76,0,0,1-19.31,29.28,162.45,162.45,0,0,1-52.92,33.7c34.34-2.74,65.24-18.57,94.21-37a.46.46,0,0,1,.41-.75l.63.08c9.17-5.86,18.15-12,27-18,.65-.44,1.38.55.72,1-8.35,5.79-16.85,11.64-25.54,17.27,8.94,1.08,17.67,1.2,26.72,1.49.42,0,.34.62,0,.69-9,1.89-19.25,1-28.17-1.23-30.63,19.7-63.57,36.46-100.27,38.07-.68.25-1.35.5-2,.73a.46.46,0,0,1-.55-.64c-1.08,0-2.15.06-3.23.06C244.3,222,244.15,220.63,245,220.62Z"/><path class="cls-6" d="M347,167.7c-4.71,10.17-12.14,19.54-19.41,28a.39.39,0,0,1-.61-.5c7-9,12.79-18.65,19.46-27.81A.33.33,0,0,1,347,167.7Z"/><path class="cls-6" d="M282.7,217.34a177.41,177.41,0,0,0,49.7-2.65c16.63-3.33,31.49-9.91,46.65-17.25.33-.17.61.36.3.57-13.65,9.05-30.19,14.56-46.08,18.05a145.28,145.28,0,0,1-50.7,2.17C282,218.15,282.14,217.3,282.7,217.34Z"/><path class="cls-7" d="M291.92,206.07c12.7-15.24,22.75-32.94,38.49-45.4,7.79-6.17,16.57-10.92,24.47-16.93,3-2.28,10.19-7.17,7.2-12-3.42-5.47-11.1,2.36-15.09-1.83-4.2-4.41,2.1-11.36,4.11-15.2,1-1.91,3.73-8.14.19-9a4.81,4.81,0,0,0-2.85.43c-5,1.94-9,6.21-14.35,7.2-4,.74-7-1.16-7-5.82,0-1.64.71-3.18.56-4.85a6.33,6.33,0,0,0-2-4.34c-1.49-1.2-2.86-1-4.46-.23-3.17,1.59-6.1,5.39-8.72,7.78-3.92,3.56-10.38,10.52-14.3,3-1.52-2.92-1.7-6.39-3.68-9.11-3.49-4.79-10-5-14.85-2.12-6,3.53-9.53,10.46-11.81,16.78-2.94,8.16-4.45,16.91-6.06,25.41q-1.85,9.76-3,19.61a1,1,0,0,0-.53.82,243.06,243.06,0,0,0-2.21,27.6c0,6.82.95,14.06,5,19.73,3.29,4.6,8.47,8.25,14.23,8.6C282.56,216.71,287.6,211.25,291.92,206.07Z"/><path class="cls-8" d="M273.11,201.26c.62-14.85,10.7-28.67,18.17-40.94,3.94-6.48,8-12.89,11.89-19.38,4.25-7.06,9.46-13.34,14.42-19.88.35-.47-.37-1.1-.77-.68-5.72,6-10,13.15-14.58,20-4.72,7-9.07,14.26-13.43,21.48-6.7,11.12-15.28,23.53-16.62,36.87-4.66-13.39-2.37-28.56.21-42.17a174.4,174.4,0,0,1,13.85-41.59c.24-.52-.64-1-.9-.44A162.53,162.53,0,0,0,271,157.94c-2.56,14-4.5,30,1,43.53A.55.55,0,0,0,273.11,201.26Z"/><path class="cls-8" d="M277.42,201.13c6.86-14,15.83-26.43,25.64-38.51,5.12-6.28,10-12.73,15.19-19s12.54-10.07,17.56-16.33c.39-.5-.38-1.15-.83-.72-5.72,5.38-12.32,9.62-17.35,15.73-5.3,6.44-10.46,13.05-15.57,19.65-9.43,12.16-19.31,24.51-25.16,38.91C276.77,201.18,277.27,201.43,277.42,201.13Z"/><path class="cls-8" d="M335.37,147.89a.27.27,0,0,0-.29-.44c-5.93,2.76-11.91,5.9-17.68,9-5,2.71-9.47,5.93-12.79,10.67-.31.44.35.84.68.45,4.4-5.35,10.17-8.93,16.27-12C326.18,153.19,331.41,151.3,335.37,147.89Z"/><path class="cls-8" d="M283.13,152.07a54,54,0,0,0,7.84-16,.35.35,0,0,0-.66-.22,111.85,111.85,0,0,1-8,15.67A.52.52,0,0,0,283.13,152.07Z"/><path class="cls-9" d="M332.71,155.68a11.05,11.05,0,0,0-4.63-8.42,8.62,8.62,0,0,0-10,.7,10.47,10.47,0,0,0-4.2,7.66c-.11,3.76,2.75,7.26,6.11,8.76a9.57,9.57,0,0,0,9.54-.94A8.77,8.77,0,0,0,332.71,155.68Z"/><g class="cls-10"><path class="cls-11" d="M332.71,155.68a11.05,11.05,0,0,0-4.63-8.42,8.6,8.6,0,0,0-10,.7,10.45,10.45,0,0,0-4.21,7.66c-.11,3.76,2.75,7.26,6.11,8.76a9.57,9.57,0,0,0,9.54-.94A8.77,8.77,0,0,0,332.71,155.68Zm-7.24,3.2a5.89,5.89,0,0,1-6-2,4.89,4.89,0,0,1,.43-6.53,4.22,4.22,0,0,1,3.75-1.11,5.41,5.41,0,0,1,4.8,3.49A4.53,4.53,0,0,1,325.47,158.88Z"/></g><path class="cls-5" d="M266.44,254.52c18.31,5.77,37.64,8.62,55.11,16.91,19.28,9.15,31.68,26.26,48.06,39.26,5.23,4.15,12.32,9.34,19.18,5.75a7.93,7.93,0,0,0,4.32-5.67c.84-4.36-2-9.88,3.23-12.33,3.12-1.45,6.67-1.06,9.68-2.93a12.89,12.89,0,0,0,5.48-7.43c1.73-6.42-2.52-11.89-4.95-17.45-1.92-4.41-1.91-7.91,1.39-11.68,2.09-2.39,4.67-4.67,4.35-8.17-.62-6.81-12.48-10.14-7.17-17.74,3.06-4.39,9.71-7.26,9.49-13.43-.24-6.94-9.76-11.92-14.8-14.93-37.1-22.19-85.56-16.08-125.23-5a.66.66,0,0,0-.42.31,52.43,52.43,0,0,0-30.45,25.9C235.21,242.78,253.35,250.39,266.44,254.52Z"/><path class="cls-6" d="M250,231c2.16-.6,4.32-1.11,6.49-1.59,22.92,2.91,46.34,8.84,66.29,20.81,8.54,5.13,15.18,11.8,21.29,19.33-.39,0-.59.59-.15.73l1,.31c1.08,1.36,2.15,2.75,3.2,4.15,6.24,8.3,12.61,17.42,22.09,22.21.49.25.88-.54.45-.85-9.56-6.79-16.21-15.53-23.22-24.7,5.51,1.79,11,3.78,16.28,6.09,6.44,2.81,12.38,6.61,18.79,9.43.3.13.49-.3.26-.49-5.18-4.25-11.73-7.16-17.82-9.84a124.49,124.49,0,0,0-18.48-6.45l-.09-.12A82.33,82.33,0,0,0,320,246.93,161.88,161.88,0,0,0,260,228.62c33.82-6.56,67.8.43,100.63,10.45a.45.45,0,0,0,.59.6l.58-.24c10.39,3.19,20.67,6.68,30.79,10.12a.62.62,0,0,0,.42-1.16c-9.58-3.35-19.33-6.71-29.2-9.81,8.33-3.43,16.72-5.88,25.35-8.59.41-.12.17-.68-.19-.66-9.14.58-18.83,4.19-26.83,8.73C327.4,227.27,291.2,220,255.4,228.21l-2.15-.16a.46.46,0,0,0-.36.77c-1,.26-2.09.52-3.13.81C248.93,229.86,249.14,231.19,250,231Z"/><path class="cls-6" d="M362.35,254.66c-7.25-8.54-16.89-15.59-26.14-21.77a.4.4,0,0,0-.46.65c9.1,6.79,17.29,14.55,26.15,21.6C362.19,255.37,362.59,254.94,362.35,254.66Z"/><path class="cls-6" d="M287.17,224a177.93,177.93,0,0,1,48.61-10.75c16.9-1.24,33,1.12,49.54,4.14.36.07.49-.51.14-.63-15.56-5.07-33-5.95-49.21-5.06a145.33,145.33,0,0,0-49.44,11.49A.44.44,0,0,0,287.17,224Z"/><path class="cls-12" d="M351.36,194a8,8,0,0,0-3.48-4.51c-2.76-1.91-6.47-2.53-9.92-2.42a3.12,3.12,0,0,1-.4-.41,14,14,0,0,0,1.84-9.44,11.14,11.14,0,0,0-4.9-7.31,8.62,8.62,0,0,0-3.73-1.13c-.39,0-3.86.09-3.85.6-.15-4.67-.7-10-4.73-12.85-3-2.15-6.72-2.24-9.4,0-2.78-5.09-8.48-9.84-13.86-2.34-12.85,17.92-28.21,30.52-45.71,42.46-5.12,3.5-13.2,8.79-10.16,16.24,2.7,6.64,13.05,4.28,18.37,3.31,9.24-1.68,18.15-4.91,27.48-6.13,9.83-1.27,19.58.46,29.37,1.29,8.17.69,17.19.94,24.82-2.57C348.74,206.15,353.48,200.51,351.36,194Z"/><path class="cls-13" d="M307.51,168.37c.5-.63-.5-1.32-1-.71a140.85,140.85,0,0,1-55.12,40c-.43.18-.14.81.3.66A124,124,0,0,0,307.51,168.37Z"/><path class="cls-13" d="M332.42,198.77c-6.51,1.48-12.53.17-19.08-.23a110.53,110.53,0,0,0-18,.46c-2.55.27-5.09.63-7.62,1,8.78-5.28,21.54-8.53,23.47-19.84a.35.35,0,0,0-.68-.16c-3.84,11.41-16.07,13.81-24.81,20.32a218.92,218.92,0,0,0-27.27,6.87c-.53.17-.26,1.1.28,1a245.35,245.35,0,0,1,25.9-6.4.37.37,0,0,0,.47,0l.19-.14c4-.7,7.94-1.27,12-1.64a108,108,0,0,1,20.26,0c4.94.49,10.56,2,15.11-.64C332.87,199.2,332.79,198.69,332.42,198.77Z"/><path class="cls-13" d="M328.3,186.61c.21-.22,0-.69-.31-.51-7.66,4.46-14.2,8.8-23,11-.36.09-.28.67.1.59C313.28,196,322.38,192.77,328.3,186.61Z"/><path class="cls-5" d="M276.14,206.15c6.14-24.42,7.9-50.17,19-73.1,5.5-11.35,12.92-21.63,18.64-32.86,2.17-4.26,7.7-13.82,1.66-17.63-6.91-4.34-11.38,8.84-18.22,6.27-7.22-2.72-3.84-14.13-3.66-19.63.09-2.73-.21-11.35-4.71-10.38a6.2,6.2,0,0,0-3,2.07C281.25,65.86,279,73,273.43,77c-4.18,3.08-8.66,2.57-11.15-2.78-.87-1.88-.93-4-2-5.85a8,8,0,0,0-4.68-3.84c-2.35-.54-3.82.42-5.2,2.21-2.76,3.57-4,9.52-5.7,13.7-2.51,6.24-6.07,17.76-14.67,11.34-3.33-2.49-5.44-6.35-9.19-8.35-6.62-3.54-14.19-.11-18.12,5.79-4.89,7.33-5.14,17.2-4.27,25.68,1.12,10.94,4.2,21.77,7,32.36,2.17,8.1,4.58,16.13,7.29,24.06a1.3,1.3,0,0,0-.16,1.23c3.74,11,7.63,22.24,12.62,32.72,3.7,7.8,8.79,15.53,16.54,19.76,6.28,3.42,14.2,4.72,21,1.94C271.3,223.48,274.06,214.46,276.14,206.15Z"/><path class="cls-6" d="M252,211.07c-7.44-17.3-3.52-38.64-1.73-56.78.94-9.57,2-19.12,2.94-28.69,1-10.41,3.48-20.46,5.55-30.68a.65.65,0,0,0-1.25-.33c-3.26,9.94-4.17,20.52-5.69,30.83-1.55,10.59-2.53,21.29-3.54,32-1.55,16.4-4.53,35.31,1.26,51.28-12.67-12.7-18.38-31.29-22.9-48.24a222,222,0,0,1-7-55.15c0-.71-1.25-.72-1.26,0a205.43,205.43,0,0,0,7.5,57.5c4.76,17.42,11.33,36.74,25.07,49.11C251.5,212.35,252.31,211.69,252,211.07Z"/><path class="cls-6" d="M256.88,208.54c.14-19.8,3.57-38.93,8.15-58.14,2.38-10,4.47-20.08,6.92-30.06S280.74,101.91,283,92c.18-.78-1.06-1.09-1.34-.36-3.58,9.31-8.78,17.79-11.18,27.55-2.52,10.29-4.77,20.68-7,31-4.09,19.1-8.59,38.66-7.37,58.33C256.18,209,256.88,209,256.88,208.54Z"/><path class="cls-6" d="M293.81,115.71a.33.33,0,0,0-.56-.33C288,121.8,282.89,128.7,278,135.43c-4.28,5.89-7.55,12-8.74,19.26-.11.66.86.75,1,.13,2.08-8.54,6.72-15.82,12-22.74C286.23,126.85,291.18,121.8,293.81,115.71Z"/><path class="cls-6" d="M236.49,149.38c1.09-7.47,1.57-15.17.16-22.62a.44.44,0,0,0-.88.11c.19,7.51.41,14.88-.58,22.34A.66.66,0,0,0,236.49,149.38Z"/><path class="cls-12" d="M274.2,129.58a7.17,7.17,0,0,0-5,1.3,15.21,15.21,0,0,0-5.53,7.4,3.29,3.29,0,0,1-.47.19,12.65,12.65,0,0,0-7.15-4.89,10.06,10.06,0,0,0-7.79,1.48,7.89,7.89,0,0,0-2.26,2.71c-.16.32-1.29,3.25-.87,3.42-3.91-1.54-8.49-3-12.3-.62a6.87,6.87,0,0,0-3.36,7.82c-5.2.5-11.15,3.56-6.86,10.71,10.23,17.08,15.18,34.36,18.83,53.17,1.07,5.51,2.56,14.12,9.8,14.25,6.45.11,8.18-9.36,9.27-14.13,1.89-8.3,2.39-16.87,4.71-25.08,2.44-8.64,7.34-16.15,11.5-24,3.48-6.56,6.89-14,6.71-21.6C283.33,136.09,280.36,130.14,274.2,129.58Z"/><path class="cls-13" d="M237.45,157c-.34-.64-1.27,0-.95.59a127.94,127.94,0,0,1,13.44,60.13.33.33,0,0,0,.65,0A112.65,112.65,0,0,0,237.45,157Z"/><path class="cls-13" d="M271.43,147.07c-1.09,6-4.32,10.5-7,15.81a99.62,99.62,0,0,0-6,15.17c-.68,2.22-1.29,4.46-1.85,6.71-1.24-9.19.61-21-8-26.6-.31-.2-.64.27-.37.51,8.06,7.25,5.7,18.3,8,27.9a197.57,197.57,0,0,0-4,25.16c-.05.5.82.6.88.1A226.39,226.39,0,0,1,256.91,188a.31.31,0,0,0,.18-.38c0-.07,0-.14,0-.21.83-3.55,1.77-7.07,2.9-10.54A98.16,98.16,0,0,1,267.13,160c2.17-3.94,5.42-8.08,4.84-12.82C271.94,146.84,271.49,146.73,271.43,147.07Z"/><path class="cls-13" d="M259.91,146.18c-.1-.26-.56-.26-.52.07,1,8,2.22,15,.88,23,0,.34.45.48.52.13C262.3,162,262.9,153.3,259.91,146.18Z"/><path class="cls-5" d="M252.84,245.6c-7.13.09-13.76,4.3-18.1,9.78-5.37,6.77-7,15.68-7.37,24.11-.49,11.34.29,23,1.1,34.26a1.3,1.3,0,0,0,.61,1.06q.87,12.26,2.6,24.42c1.48,10.61,2.83,21.53,6,31.8,2.45,8,6.42,16.74,13.61,21.46,5.78,3.8,13.89,4,18.49-1.74,2.61-3.24,3-7.52,5.1-11,5.29-9.06,12.87-.07,17.5,4.58,3.1,3.11,6.5,8,10.33,10.13,1.93,1.09,3.62,1.38,5.52,0a7.83,7.83,0,0,0,2.75-5.24c.28-2.06-.48-4-.41-6,.2-5.76,4-7.94,9-6.78,6.54,1.54,11.29,7.07,17.32,9.77a6,6,0,0,0,3.5.69c4.42-.84,1.42-8.71.3-11.14-2.26-4.87-9.64-13.84-4.18-19.05,5.18-4.94,14.21,5.21,18.76-1.35,4-5.74-4.62-12.22-8.19-15.22-9.42-7.9-20-14.3-29.26-22.4-18.72-16.35-30.11-38.84-44.91-58.44C267.82,252.53,261.91,245.48,252.84,245.6Z"/><path class="cls-6" d="M249.32,264c-.12,18.41,11.52,36.1,20,51.73,4.49,8.24,9.1,16.42,13.56,24.68,4.84,9,10.91,17.06,16.66,25.45.4.59-.52,1.33-1,.79-6.72-7.7-11.56-16.86-16.84-25.55-5.43-8.93-10.38-18.18-15.34-27.38-7.63-14.15-17.5-30-18.36-46.6-6.57,16.29-4.64,35.19-2.25,52.17a216,216,0,0,0,14.67,52.28c.26.65-.86,1.13-1.14.48a200.83,200.83,0,0,1-15.13-54.59c-2.34-17.49-3.78-37.38,3.87-53.78A.68.68,0,0,1,249.32,264Z"/><path class="cls-6" d="M254.63,264.45c7.66,17.74,18,33.63,29.44,49.15C290,321.68,295.72,330,301.72,338s14.92,13.2,20.75,21.25c.46.63-.53,1.39-1.06.84-6.77-7-14.67-12.64-20.53-20.49-6.18-8.29-12.16-16.77-18.1-25.24-10.94-15.6-22.42-31.47-28.81-49.63C253.84,264.34,254.46,264.07,254.63,264.45Z"/><path class="cls-6" d="M323.14,333.76a.33.33,0,0,1-.38.52c-7.17-3.76-14.38-8-21.33-12.18-6.09-3.66-11.36-7.91-15.19-14-.35-.56.49-1,.87-.51,5.12,6.88,12.06,11.64,19.41,15.85C312.09,326.66,318.46,329.3,323.14,333.76Z"/><path class="cls-6" d="M258.79,325.47c3.82,6.3,7.18,13,8.74,20.28a.43.43,0,0,1-.82.23c-2.69-6.82-5.29-13.53-9-19.87A.64.64,0,0,1,258.79,325.47Z"/><path class="cls-7" d="M243.86,266c14.9,12.14,31.82,21.95,45,36.12,14.57,15.64,19.82,36.13,30.27,54.28,3.34,5.79,8,13.24,15.72,12.44a7.86,7.86,0,0,0,6.09-3.67c2.38-3.74,1.73-9.94,7.53-10.26,3.43-.2,6.6,1.48,10.08.85a12.83,12.83,0,0,0,7.82-4.88c4-5.32,2-12,1.81-18.05-.18-4.81,1.12-8.06,5.57-10.34,2.83-1.45,6.05-2.62,7-6,1.92-6.56-7.87-14-.15-19.14,4.46-3,11.69-3.16,13.76-9,2.32-6.54-4.7-14.69-8.28-19.35-26.35-34.36-73.64-46.62-114.6-50.95a.78.78,0,0,0-.51.13A52.28,52.28,0,0,0,233.22,231C219.14,243.52,233.21,257.31,243.86,266Z"/><path class="cls-8" d="M237.21,238c2.23.24,4.43.56,6.61.92,20.25,11.19,39.84,25.37,54,43.88,6.05,7.93,9.78,16.59,12.69,25.85-.37-.13-.76.33-.41.62l.8.66c.51,1.66,1,3.34,1.46,5,2.75,10,5.32,20.86,12.38,28.82.36.41,1-.18.72-.63-6.39-9.85-9.36-20.43-12.51-31.55,4.47,3.71,8.81,7.57,12.9,11.68,5,5,9.08,10.73,14,15.72.23.23.56-.09.41-.35-3.25-5.87-8.27-11-12.95-15.75a124.62,124.62,0,0,0-14.81-12.84l0-.14a82.76,82.76,0,0,0-16.06-31.19,162.48,162.48,0,0,0-49-39.2c33.84,6.41,62.87,25.49,89.71,47a.45.45,0,0,0,.33.78h.63c8.49,6.81,16.76,13.86,24.9,20.8.6.52,1.43-.4.82-.92-7.68-6.66-15.51-13.39-23.54-19.93,9-.11,17.7.72,26.72,1.4.42,0,.4-.57.06-.68-8.7-2.85-19-3.08-28.15-1.82-28.34-22.89-59.3-43.1-95.62-48.66-.64-.32-1.28-.64-1.93-.94a.46.46,0,0,0-.62.58c-1.07-.15-2.13-.29-3.21-.41C236.64,236.59,236.34,237.91,237.21,238Z"/><path class="cls-8" d="M333,301.61c-3.6-10.61-10-20.73-16.31-29.9a.4.4,0,0,0-.67.43c6,9.68,10.73,19.93,16.38,29.75A.34.34,0,0,0,333,301.61Z"/><path class="cls-8" d="M274.33,245.33a177.33,177.33,0,0,1,49.13,8c16.17,5.1,30.24,13.24,44.53,22.18.31.2.64-.3.36-.53-12.6-10.48-28.46-17.74-43.89-22.92a145.52,145.52,0,0,0-50.17-7.62C273.71,244.45,273.76,245.31,274.33,245.33Z"/><path class="cls-14" d="M193.93,146c29.5-3.41,59.06-7.44,88.23-13.1,10.12-2,20.23-4,30.37-5.89,1.88-.34,7.91-.13,6.79-3.33C309,94.23,279.57,70.57,246.83,78.46c-14,3.38-28,10-38.11,20.69-11.9,12.55-14.72,28.67-16.23,45.35A1.32,1.32,0,0,0,193.93,146Z"/><path class="cls-15" d="M188,140c29.51-3.4,59.07-7.43,88.24-13.1,10.12-2,20.22-4,30.37-5.88,1.88-.35,7.91-.14,6.79-3.34-10.32-29.43-39.75-53.09-72.49-45.2-14,3.38-28,10-38.11,20.7-11.9,12.55-14.73,28.66-16.23,45.34A1.31,1.31,0,0,0,188,140Z"/><path class="cls-16" d="M277.75,88.82c-13.38-6.73-29.5-8.78-43.87-4.19-23.7,7.57-38.5,30.46-37.87,54.44,26.84-3.2,53.69-7,80.22-12.15,9.94-1.93,19.87-4,29.84-5.78C303.83,107.18,289.29,94.61,277.75,88.82Z"/><path class="cls-15" d="M204.76,134.31a8.75,8.75,0,0,0,3.79.88c4.66.3,30.44-1,25.93-11.26a23.48,23.48,0,0,0-2-3.16,7.24,7.24,0,0,1-1.22-4.9,7.54,7.54,0,0,1,1-3.19c2.86-4.63,10.9-6,15.76-5.27a11.94,11.94,0,0,1,5.21,1.87c4.33,3,2.87,7.49,1.4,11.67-.9,2.57-.07,4.9,2.74,5.6s5.82.25,8.56-.14a219.68,219.68,0,0,0,23.31-4.31c3.31-.84,6.92-2.17,6-6.22-3.68-15.53-21.6-24.85-35.57-26.69-16.16-2.12-33.31,3.67-45.4,15.49a36.15,36.15,0,0,0-4.17,4.82,40.51,40.51,0,0,0-7.34,18.59c-.24,2.06-.09,4.92,1.86,6.13Z"/><path class="cls-17" d="M269.53,118.89c2.13-1.11,6.24-2.67,6.18-5.54a1.21,1.21,0,0,0-1-1c-1.33-.38-2.5.56-3.51,1.29s-2.17,1.66-3.29,2.44C266.44,117.11,267.87,119.76,269.53,118.89Z"/><path class="cls-17" d="M266.69,109.7a13.26,13.26,0,0,0,1.65-3.83c.29-1.47-1.55-1.93-2.42-1.05a13.72,13.72,0,0,0-2.19,3.59C262.77,110.29,265.71,111.51,266.69,109.7Z"/><path class="cls-17" d="M253.41,102.34c.25,2.28,3.47,1.78,3.44-.42,0-1.68.33-4.07-.85-5.44a1.47,1.47,0,0,0-2.31,0C252.57,98.13,253.2,100.47,253.41,102.34Z"/><path class="cls-17" d="M238.75,102.19a1.6,1.6,0,0,0,3.18-.39,14.16,14.16,0,0,0-.46-2.83,1.54,1.54,0,0,0-2.94.35A14.56,14.56,0,0,0,238.75,102.19Z"/><path class="cls-17" d="M224.53,106.56a9.36,9.36,0,0,0,2.47,2.63c1.78,1.56,4.14-1.42,2.27-2.9a8.53,8.53,0,0,0-2.63-1.81C225.45,104.13,223.84,105.16,224.53,106.56Z"/><path class="cls-17" d="M219.28,116.83a11.08,11.08,0,0,0,3.68.58c2.11.2,2.61-3,.49-3.28a11.63,11.63,0,0,0-3.76-.19A1.53,1.53,0,0,0,219.28,116.83Z"/><path class="cls-17" d="M220.53,127.76c1.89-.14,1.51-3-.35-2.92-1.43.06-2.83-.11-4.25-.09-.91,0-2.42.19-2.37,1.43C213.67,128.58,219.08,127.87,220.53,127.76Z"/><path class="cls-14" d="M345,177c.82,29.81,2.25,59.73,5.34,89.4,1.07,10.29,2.26,20.58,3.21,30.89.17,1.91-.55,7.93,2.72,7.08,30.09-7.77,56.12-35.16,51.13-68.59-2.14-14.3-7.52-28.87-17.23-39.92-11.42-13-27.16-17.22-43.58-20.16A1.3,1.3,0,0,0,345,177Z"/><path class="cls-15" d="M339.05,171c.82,29.81,2.26,59.74,5.35,89.4,1.07,10.3,2.26,20.59,3.2,30.89.18,1.91-.55,7.93,2.72,7.09,30.1-7.78,56.12-35.16,51.13-68.6-2.13-14.3-7.51-28.87-17.22-39.91-11.42-13-27.16-17.22-43.58-20.17A1.32,1.32,0,0,0,339.05,171Z"/><path class="cls-16" d="M382.07,265.27c7.83-12.8,11.27-28.75,8-43.52-5.45-24.36-26.88-41.15-50.73-42.61.85,27.13,2.29,54.32,5.1,81.3,1.05,10.12,2.21,20.23,3.15,30.36C361.59,289.77,375.32,276.31,382.07,265.27Z"/><path class="cls-15" d="M343.27,188.31a8.88,8.88,0,0,0-1.21,3.72c-.7,4.63-1.67,30.53,8.93,26.91a22.49,22.49,0,0,0,3.31-1.7,7.18,7.18,0,0,1,5-.79,7.41,7.41,0,0,1,3.07,1.26c4.35,3.27,5,11.42,3.86,16.22a11.88,11.88,0,0,1-2.31,5.06c-3.37,4.07-7.67,2.22-11.7.38-2.47-1.12-4.85-.49-5.79,2.26s-.75,5.8-.61,8.57a226,226,0,0,0,2.26,23.69c.55,3.39,1.55,7.11,5.66,6.51,15.73-2.33,26.53-19.46,29.56-33.27a56.11,56.11,0,0,0-11.42-46.75,37,37,0,0,0-4.43-4.6,40.22,40.22,0,0,0-17.81-8.95c-2-.42-4.87-.52-6.24,1.33Z"/><path class="cls-17" d="M353,254.44c.92,2.23,2.11,6.48,5,6.66a1.2,1.2,0,0,0,1.1-.9c.49-1.29-.34-2.55-1-3.63s-1.45-2.31-2.14-3.49C355,251.5,352.23,252.7,353,254.44Z"/><path class="cls-17" d="M362.31,252.4a13.4,13.4,0,0,0,3.66,2c1.43.42,2-1.39,1.25-2.33a13.9,13.9,0,0,0-3.37-2.51C362.07,248.42,360.6,251.26,362.31,252.4Z"/><path class="cls-17" d="M370.77,239.75c-2.28.05-2.07,3.32.11,3.48,1.67.13,4,.68,5.47-.38a1.49,1.49,0,0,0,.22-2.32C375,239.28,372.64,239.7,370.77,239.75Z"/><path class="cls-17" d="M372.19,225.1a1.61,1.61,0,0,0,.11,3.21,13.64,13.64,0,0,0,2.85-.22,1.55,1.55,0,0,0-.1-3A13.67,13.67,0,0,0,372.19,225.1Z"/><path class="cls-17" d="M369.09,210.49a9.45,9.45,0,0,0-2.83,2.25c-1.7,1.64,1.05,4.26,2.68,2.52a8.78,8.78,0,0,0,2-2.48C371.41,211.63,370.53,209.92,369.09,210.49Z"/><path class="cls-17" d="M359.36,204.35a11.2,11.2,0,0,0-.91,3.63c-.37,2.09,2.81,2.88,3.22.78a11.73,11.73,0,0,0,.51-3.74A1.51,1.51,0,0,0,359.36,204.35Z"/><path class="cls-17" d="M348.4,204.65c0,1.91,2.84,1.78,2.92-.09.07-1.44.36-2.82.47-4.25.07-.91,0-2.43-1.22-2.49C348.18,197.72,348.42,203.19,348.4,204.65Z"/><path class="cls-7" d="M365.26,229.71c2.6-.22,8.32-.3,9.89-3.18,1.73-3.15-2.56-6.05-4.12-8.16-6.55-8.84,6.54-9.35,10.82-12.64,2.32-1.78,4-5.13,2.39-7.95-1.31-2.23-4.09-2.64-6.43-2.87-1.69-.17-4.57.11-6-1-3.9-3.08,2.07-7.07,3.57-9.15,4.51-6.23-1.78-13.27-8.7-11a22.19,22.19,0,0,0-4.51,2.53c-1.14.69-3.58,2.6-4.95,1a33.77,33.77,0,0,0,.58-3.34c.23-3.17-.42-6.69-3.19-8.66-7.26-5.18-11.95,6.53-14.53,11.08-4.14,7.32-9.44,10.89-17.74,11.61-6.22.53-12.19,1.21-18.09,3.45-3.55,1.34-7.69,3.38-9,7.27a6,6,0,0,0,1.23,6.34,14.06,14.06,0,0,0,3.94,2.49c10,4.87,19.92,9.93,30.08,14.42C341.32,226.78,353.25,230.69,365.26,229.71Z"/><path class="cls-8" d="M340.48,200.59c9-1.13,16-8.05,23.18-13.16a.45.45,0,0,0-.42-.79c-3.45,1.49-6.29,4-9.26,6.29-4.62,3.53-9.22,6.09-15.09,6.65a99.63,99.63,0,0,1-15.45-.2c-2.53-.15-5.06-.35-7.58-.55-.92-.08-3.44-.63-5.51-.89,1.22,0,2.46,0,2.88,0,1.95-.14,3.91-.28,5.86-.51a62.42,62.42,0,0,0,14-3,33,33,0,0,0,17.43-13.51.44.44,0,0,0-.74-.47c-9.7,14.41-28,16.71-44,17.34a.31.31,0,0,0,0,.62C317,200.19,329.17,202,340.48,200.59Z"/><path class="cls-8" d="M338.63,207.9c11.56-.63,23.12-3.43,34.4-5.93.45-.1.28-.76-.17-.69-11.36,1.82-22.69,4.7-34.19,5.44-12.43.8-24.18-1.87-36.11-5.1a.34.34,0,0,0-.2.66C314,205.57,326.41,208.58,338.63,207.9Z"/><path class="cls-8" d="M353,220.44a.43.43,0,0,0,0-.82c-7.1-1.48-13.27-3.08-19.89-6.2-5.69-2.69-11.26-5.52-17.38-7.13-.6-.15-.88.76-.29.93,7.39,2,14,5.85,20.9,9.1C341.46,218.72,347.32,221.24,353,220.44Z"/><path class="cls-12" d="M222.78,260.17C233.37,277,247.1,292,254.13,310.81c3.48,9.32,5.31,19.17,8.61,28.56,1.25,3.55,3.69,11.93,9.15,10.52,6.23-1.61,1.13-11.34,6.32-13.87,5.47-2.68,10.14,5.46,13.17,8.55,1.51,1.54,6.59,6.05,8.48,2.93a4.89,4.89,0,0,0,.46-2.86c-.33-5.35-3.15-10.51-2.46-15.92.52-4.07,3.24-6.37,7.64-4.89,1.55.52,2.81,1.65,4.44,2a6.29,6.29,0,0,0,4.73-.6c1.58-1.06,1.83-2.42,1.56-4.2-.54-3.52-3.25-7.47-4.71-10.7-2.2-4.84-6.83-13.14,1.49-14.6,3.24-.56,6.58.32,9.76-.75,5.61-1.88,7.77-8.09,6.54-13.55-1.53-6.8-7-12.3-12.33-16.41-6.84-5.29-14.69-9.4-22.26-13.53q-8.7-4.73-17.67-8.87a1.07,1.07,0,0,0-.62-.77,240.78,240.78,0,0,0-25.51-10.51c-6.46-2.11-13.63-3.38-20.24-1.22-5.36,1.75-10.41,5.6-12.49,11C215.54,248,219.18,254.46,222.78,260.17Z"/><path class="cls-13" d="M233.06,243.65c13.91,5.11,23.95,19,33.32,29.83,4.94,5.74,9.8,11.56,14.76,17.28,5.4,6.22,9.78,13.11,14.47,19.85.33.47,1.15,0,.87-.54-3.89-7.28-9.43-13.54-14.49-20-5.19-6.65-10.76-13-16.29-19.39-8.51-9.8-17.67-21.78-29.92-27.12,14.13-.39,27.82,6.42,39.94,13A173.7,173.7,0,0,1,311,282.5c.41.38,1.09-.33.68-.73a161.08,161.08,0,0,0-36.85-26.91c-12.52-6.73-27.1-13.45-41.62-12.27A.56.56,0,0,0,233.06,243.65Z"/><path class="cls-13" d="M231.88,247.8c11.21,10.84,20.26,23.19,28.72,36.26,4.41,6.8,9,13.47,13.38,20.3s5.74,15.06,10.16,21.77c.34.53,1.19,0,.93-.57-3.36-7.12-5.38-14.71-9.64-21.39-4.5-7-9.2-14-13.9-20.87-8.67-12.73-17.37-25.94-29.25-35.92C232,247.17,231.64,247.57,231.88,247.8Z"/><path class="cls-13" d="M264.75,319.44a.26.26,0,0,0,.5-.14c-.81-6.51-2-13.19-3.16-19.65-1-5.66-2.74-10.87-6.23-15.49-.32-.42-.9.09-.62.52,3.73,5.84,5.36,12.45,6.45,19.23C262.52,309,262.71,314.62,264.75,319.44Z"/><path class="cls-13" d="M276.68,268.21c3.67,4.68,7.8,9.14,12.82,12.37a.34.34,0,0,0,.4-.56,110.8,110.8,0,0,1-12.42-12.47C277.07,267,276.27,267.68,276.68,268.21Z"/><path class="cls-5" d="M208.59,248c-23.42,7.24-45.73,18.83-70.44,21.14-12.23,1.14-24.54.14-36.78,1-4.64.34-15.4.55-15.5,7.55-.11,8,13.12,5,14.45,12.1,1.41,7.43-9.8,10.38-14.46,13-2.32,1.31-9.34,5.94-6.24,9.22a6,6,0,0,0,3.25,1.48c6.47,1.34,13.54-.36,19.74,2.22,4.68,2,6.53,6,3.34,10.76-1.12,1.69-2.87,2.83-3.84,4.67a7.93,7.93,0,0,0-.82,5.87c.74,2.24,2.29,3,4.48,3.24,4.37.5,10-1.47,14.28-2.18,6.47-1.05,17.85-3.91,16.88,6.55-.38,4.06-2.52,7.78-2.28,11.94.41,7.35,7.1,11.95,14,12.26,8.58.38,16.91-4.43,23.52-9.45,8.53-6.49,16-14.57,23.34-22.31q8.48-8.89,16.31-18.32a1.29,1.29,0,0,0,1.11-.49c7.23-8.7,14.62-17.69,20.81-27.18,4.6-7.07,8.45-15.26,8-23.9-.34-7-3.28-14.3-9-18.55C225.46,243.27,216.56,245.53,208.59,248Z"/><path class="cls-6" d="M224.91,265.7c-10.61,15-30.34,22.57-46.34,30.27-8.43,4.06-16.93,8-25.35,12.09-9.15,4.45-18.78,7.47-28.32,10.91a.64.64,0,0,0,.35,1.22c9.93-2.31,19.18-6.92,28.53-10.88,9.6-4.07,19-8.68,28.36-13.24,14.43-7,31.66-14.11,42-27.07-4.13,17.07-16.69,31.28-28.49,43.68a215.4,215.4,0,0,1-42.3,33.85c-.59.37,0,1.41.64,1.06a199.72,199.72,0,0,0,44-35.46c12.07-12.84,24.81-28.14,28.12-45.94A.68.68,0,0,0,224.91,265.7Z"/><path class="cls-6" d="M220.35,262.94c-16.54,9.92-34.18,16.75-52.48,22.66-9.52,3.07-19,6.44-28.51,9.45s-19.78,2-29.2,5.1c-.74.24-.37,1.44.38,1.31,9.56-1.72,19.25-1.67,28.57-4.61,9.84-3.11,19.63-6.49,29.37-9.89,18-6.26,36.5-12.41,52.24-23.41C221.05,263.32,220.7,262.72,220.35,262.94Z"/><path class="cls-6" d="M124.42,279.07a.32.32,0,0,0,0,.64c8,1.15,16.34,1.93,24.41,2.61,7.07.6,13.82.24,20.45-2.44.6-.25.19-1.11-.41-.92-8.16,2.58-16.56,2.39-25,1.49C137.53,279.77,130.82,278.19,124.42,279.07Z"/><path class="cls-6" d="M181.5,310c-6.77,2.88-13.41,6.38-18.89,11.35a.43.43,0,0,0,.54.67c6.15-4,12.16-7.88,18.87-10.84A.65.65,0,0,0,181.5,310Z"/><path class="cls-5" d="M191.87,193.07c-8-18.16-19.43-35-23.65-54.69-2.09-9.74-2.47-19.74-4.37-29.51-.72-3.71-1.92-12.35-7.52-11.75-6.39.68-2.77,11-8.27,12.79-5.8,1.85-9.23-6.89-11.79-10.39-1.27-1.74-5.64-6.94-8-4.14a4.94,4.94,0,0,0-.87,2.76c-.45,5.34,1.59,10.87.12,16.11-1.11,4-4.13,5.83-8.27,3.73-1.45-.75-2.53-2-4.09-2.65a6.3,6.3,0,0,0-4.77-.09c-1.72.81-2.17,2.12-2.16,3.92,0,3.56,2.13,7.87,3.11,11.28,1.47,5.11,4.85,14-3.6,14.22-3.28.09-6.46-1.28-9.76-.69-5.83,1-8.86,6.87-8.44,12.45.52,7,5.16,13.2,9.81,18,6,6.24,13.16,11.46,20.06,16.65q7.9,6,16.19,11.37a1.07,1.07,0,0,0,.5.84,241.44,241.44,0,0,0,23.71,14.14c6.08,3,13,5.34,19.85,4.17,5.56-.95,11.11-4,14-9C197.27,206.19,194.61,199.25,191.87,193.07Z"/><path class="cls-6" d="M179.3,207.91c-13-7.1-20.93-22.26-28.62-34.4-4.06-6.4-8-12.86-12.09-19.25-4.44-6.94-7.77-14.4-11.44-21.76-.25-.52-1.14-.15-.94.41,2.8,7.77,7.37,14.77,11.43,21.92,4.17,7.33,8.76,14.45,13.3,21.56,7,10.94,14.32,24.13,25.66,31.22-14-1.69-26.59-10.43-37.62-18.75a174,174,0,0,1-31.1-30.8c-.35-.44-1.13.16-.78.62a161.44,161.44,0,0,0,32.55,32c11.4,8.48,24.85,17.26,39.38,18.22A.55.55,0,0,0,179.3,207.91Z"/><path class="cls-6" d="M181.08,204c-9.52-12.36-16.67-25.91-23.15-40.07-3.37-7.38-7-14.65-10.29-22.05s-3.48-15.74-6.88-23c-.26-.56-1.18-.15-1,.44,2.29,7.53,3.18,15.34,6.42,22.56,3.43,7.62,7.07,15.18,10.72,22.69,6.73,13.86,13.42,28.2,23.72,39.82C180.84,204.57,181.28,204.23,181.08,204Z"/><path class="cls-6" d="M159,128.28a.26.26,0,0,0-.51.07c-.15,6.56,0,13.34.26,19.9.2,5.75,1.14,11.15,3.92,16.23.25.47.9.05.69-.41-2.85-6.32-3.5-13.1-3.59-20C159.67,138.9,160.29,133.35,159,128.28Z"/><path class="cls-6" d="M139.72,177.22c-2.95-5.17-6.38-10.18-10.88-14.12a.35.35,0,0,0-.48.5,111.22,111.22,0,0,1,10.47,14.15A.52.52,0,0,0,139.72,177.22Z"/><path class="cls-7" d="M231.55,91.51a9.35,9.35,0,0,0-7.21-.23c-1.45.54-2.7,1.58-4.15,2.11-4.27,1.55-7.24-.68-9.41-4.22-2.66-4.36-5.16-11.89-11.85-10.41a5.42,5.42,0,0,0-4.09,4.13,32.63,32.63,0,0,0-.44,4.3c-.63,4.4-3.65,5.63-7.53,4.59-7.5-2-10.15-13.09-18.54-13.17-6-.06-6.88,6.13-6,10.8,1,5.42,2.18,11.47-5.35,12.32-3.63.41-7.57-1-11.13-.11-6,1.47-4.28,7.62-1.79,11.59,4,6.34,13.46,11.79,11.9,20.46-.87,4.85-6.79,5.52-8.26,10-.81,2.47.13,5.12,1.3,7.29,4.43,8.17,12.31,15.19,19,21.42,8.48,7.85,17.71,14.85,25.93,23a119,119,0,0,1,13.17,16c3.43,4.85,5.74,10.87,11.76,12.69s12.33.2,17.44-3.34a25.69,25.69,0,0,0,10.45-15.54c1.56-7.44-.77-14.93-3.27-21.87-3.48-9.63-7.37-19.1-11.5-28.46-1.84-4.17-3.92-8.52-3.55-13.21.36-4.49,2.65-8.56,4.65-12.5C238,119.47,245.46,97.64,231.55,91.51Z"/><path class="cls-8" d="M167.58,124c.78,15.12,15.42,26.46,25.34,36.14q2.57,2.5,5,5.13a85.8,85.8,0,0,1-15.65-4.16c-5.6-2.13-10.69-5.14-15.95-8-.34-.18-.63.33-.35.57,9,7.45,21.47,11.69,33.08,12.84a131.58,131.58,0,0,1,25.25,41.63.51.51,0,0,0,.95-.36A124.69,124.69,0,0,0,201,166.64a.45.45,0,0,0-.06-.88l-.86-.14c-.55-.61-1.1-1.21-1.66-1.81-5.88-6.23-12.41-11.8-18.12-18.19a56.18,56.18,0,0,1-12.06-21.78C168.09,123.48,167.57,123.63,167.58,124Z"/><path class="cls-8" d="M182,118.52c5,7.4,9.83,14.24,13.7,22.35,3.49,7.32,6.7,14.77,10,22.17,7.08,15.84,14.25,31.64,21.38,47.45.24.53,1.09.22.85-.31q-11.05-25-22.13-50c-3.5-7.84-6.84-15.79-10.71-23.46-3.32-6.58-7-13.71-12.61-18.61A.33.33,0,0,0,182,118.52Z"/><path class="cls-8" d="M219.74,106.66c-1.67,7.94-5,15.36-6.5,23.34a83.76,83.76,0,0,0-1,21.68c1.25,16.72,6.65,32.71,12.21,48.4.17.5.91.21.76-.28-5.13-16-10.6-32.14-11.72-49a79.28,79.28,0,0,1,1.69-23.5c1.57-6.7,5.9-13.6,5.3-20.62A.37.37,0,0,0,219.74,106.66Z"/><path class="cls-8" d="M205.27,105.19c0,8.73,2.92,17.81,6.24,25.78a.43.43,0,0,0,.81-.3c-3.18-8.36-4.53-16.86-6.39-25.55A.33.33,0,0,0,205.27,105.19Z"/><path class="cls-7" d="M263.39,351c-2.46-3.67-5.21-7.44-6.1-11.86-.92-4.61.64-9.18,2-13.54,3-9.78,5.73-19.65,8.05-29.62,1.66-7.19,3.08-14.91.65-22.1a25.65,25.65,0,0,0-12.2-14.19c-5.5-2.91-11.93-3.78-17.72-1.24s-7.34,8.78-10.18,14a119.18,119.18,0,0,1-11.18,17.48c-7.19,9.05-15.53,17.11-23,25.91-5.95,7-12.95,14.9-16.37,23.54-.91,2.29-1.53,5-.43,7.39,2,4.25,7.94,4.21,9.38,8.92,2.57,8.42-6.21,15-9.4,21.73-2,4.25-3,10.56,3.15,11.3,3.64.44,7.39-1.42,11-1.44,7.58,0,7.12,6.1,6.77,11.59-.31,4.75,1.32,10.78,7.24,10,8.33-1.08,9.65-12.42,16.85-15.29,3.74-1.49,6.88-.63,8,3.67a35.59,35.59,0,0,0,1,4.21,5.38,5.38,0,0,0,4.55,3.61c6.82.67,8.41-7.1,10.54-11.74,1.73-3.78,4.41-6.35,8.84-5.31,1.5.35,2.87,1.23,4.37,1.59a9.37,9.37,0,0,0,7.14-1.08C279.38,380.77,269.42,360,263.39,351Z"/><path class="cls-8" d="M198.94,363.91c-1-15.11,12.17-28.11,20.87-38.91q2.25-2.79,4.34-5.68a85.11,85.11,0,0,0-15,6c-5.31,2.79-10,6.39-14.9,9.83-.31.22-.66-.25-.41-.52,8-8.47,19.94-14.17,31.33-16.69a131.78,131.78,0,0,0,20.14-44.36.51.51,0,0,1,1,.24A125,125,0,0,1,227,317.57a.45.45,0,0,1,.05.88l-.84.25c-.48.67-1,1.33-1.44,2-5.1,6.89-10.93,13.2-15.84,20.23a56.16,56.16,0,0,0-9.4,23.06C199.5,364.35,199,364.26,198.94,363.91Z"/><path class="cls-8" d="M213.86,367.62c4-7.94,8.08-15.31,11-23.83,2.59-7.68,4.9-15.46,7.31-23.21,5.15-16.57,10.4-33.11,15.61-49.66.17-.56,1-.35.88.21-5.35,17.44-10.66,34.9-16.06,52.32C230,331.66,227.64,340,224.7,348c-2.52,6.93-5.32,14.45-10.31,20C214.13,368.3,213.69,368,213.86,367.62Z"/><path class="cls-8" d="M252.78,374.89c-2.6-7.69-6.79-14.65-9.22-22.4a83.07,83.07,0,0,1-3.58-21.4c-.74-16.76,2.73-33.27,6.39-49.52a.41.41,0,0,1,.79.19c-3.2,16.46-6.71,33.17-5.84,50.05a79.69,79.69,0,0,0,4.46,23.13c2.36,6.47,7.47,12.8,7.7,19.84A.36.36,0,0,1,252.78,374.89Z"/><path class="cls-8" d="M238.58,378.08c-1.07-8.67.79-18,3.14-26.35a.43.43,0,0,1,.84.21c-2.17,8.68-2.5,17.28-3.32,26.12A.33.33,0,0,1,238.58,378.08Z"/><path class="cls-7" d="M210.62,216.4c-18.92-3.27-38.45-3.51-56.87-9.38-20.33-6.48-34.89-21.77-52.85-32.46-5.73-3.41-13.45-7.61-19.77-3.13a8,8,0,0,0-3.53,6.2c-.25,4.43,3.34,9.52-1.56,12.65-2.9,1.85-6.48,1.95-9.21,4.21a12.8,12.8,0,0,0-4.43,8.09c-.87,6.6,4.07,11.45,7.21,16.63,2.5,4.11,3,7.58.19,11.76-1.76,2.65-4,5.26-3.23,8.68,1.52,6.67,13.71,8.38,9.46,16.62-2.45,4.76-8.66,8.5-7.62,14.59,1.16,6.84,11.26,10.5,16.65,12.81,39.72,17,86.94,4.46,124.77-11.88a.72.72,0,0,0,.38-.37,52.52,52.52,0,0,0,26.73-29.75C243.12,223.84,224.13,218.73,210.62,216.4Z"/><path class="cls-8" d="M230.06,237.53c-2.06.89-4.14,1.69-6.22,2.46-23.11.18-47.1-2.55-68.46-11.75-9.15-3.93-16.62-9.65-23.67-16.3.39-.07.5-.67,0-.74l-1-.18q-1.89-1.8-3.73-3.68c-7.28-7.39-14.81-15.58-24.84-19.05-.52-.18-.8.65-.33.9,10.37,5.45,18.12,13.22,26.29,21.37-5.7-1-11.37-2.27-16.94-3.85-6.76-1.92-13.15-4.9-19.88-6.83-.31-.09-.44.36-.19.52,5.7,3.52,12.57,5.53,19,7.36a124.38,124.38,0,0,0,19.17,3.92l.1.11a82.28,82.28,0,0,0,29.22,19.3,161.79,161.79,0,0,0,61.84,10.11c-32.64,11-67.25,8.66-101.12,3.14a.44.44,0,0,0-.66-.52l-.54.32c-10.73-1.78-21.38-3.85-31.86-5.91a.62.62,0,0,0-.27,1.21c10,2,20,4.06,30.24,5.81-7.8,4.52-15.78,8.07-24,11.91-.38.17-.07.7.28.63,9-1.8,18.11-6.68,25.43-12.25,35.88,6,72.73,8.44,107.11-4.55l2.14-.13a.46.46,0,0,0,.26-.81c1-.4,2-.8,3-1.22C231.24,238.49,230.86,237.19,230.06,237.53Z"/><path class="cls-8" d="M115.55,229.12c8.31,7.49,18.81,13.17,28.79,18.06a.4.4,0,0,0,.37-.7c-9.92-5.51-19.07-12.11-28.78-17.9C115.61,228.39,115.27,228.87,115.55,229.12Z"/><path class="cls-8" d="M194.12,249.39a177.89,177.89,0,0,1-46.74,17.17c-16.59,3.5-32.83,3.31-49.65,2.53a.33.33,0,0,0-.06.65c16.1,2.94,33.47,1.48,49.45-1.58a145.6,145.6,0,0,0,47.47-18C195.09,249.85,194.62,249.12,194.12,249.39Z"/><path class="cls-9" d="M238.17,144.7a11.05,11.05,0,0,0-4.63-8.42,8.62,8.62,0,0,0-10,.69,10.46,10.46,0,0,0-4.2,7.67c-.11,3.75,2.75,7.25,6.1,8.76a9.57,9.57,0,0,0,9.54-1A8.77,8.77,0,0,0,238.17,144.7Z"/><g class="cls-10"><path class="cls-11" d="M238.17,144.7a11.05,11.05,0,0,0-4.63-8.42,8.62,8.62,0,0,0-10,.69,10.46,10.46,0,0,0-4.2,7.67c-.11,3.75,2.75,7.25,6.1,8.76a9.57,9.57,0,0,0,9.54-1A8.77,8.77,0,0,0,238.17,144.7Zm-7.25,3.19a5.9,5.9,0,0,1-6-2,4.89,4.89,0,0,1,.42-6.53,4.24,4.24,0,0,1,3.76-1.12,5.42,5.42,0,0,1,4.8,3.5A4.53,4.53,0,0,1,230.92,147.89Z"/></g><path class="cls-9" d="M296,358.39a11,11,0,0,0-4.62-8.42,8.62,8.62,0,0,0-10,.7,10.44,10.44,0,0,0-4.2,7.66c-.11,3.76,2.75,7.26,6.1,8.76a9.55,9.55,0,0,0,9.54-.94A8.75,8.75,0,0,0,296,358.39Z"/><g class="cls-10"><path class="cls-11" d="M296,358.39a11,11,0,0,0-4.62-8.42,8.62,8.62,0,0,0-10,.7,10.44,10.44,0,0,0-4.2,7.66c-.11,3.76,2.75,7.26,6.1,8.76a9.55,9.55,0,0,0,9.54-.94A8.75,8.75,0,0,0,296,358.39Zm-7.24,3.2a5.9,5.9,0,0,1-6-2,4.89,4.89,0,0,1,.42-6.53A4.21,4.21,0,0,1,287,352a5.39,5.39,0,0,1,4.79,3.49A4.52,4.52,0,0,1,288.76,361.59Z"/></g><path class="cls-14" d="M275.54,355.54c-28.06-9.75-56.45-19-85.18-26.54-10-2.63-20-5.14-29.92-7.89-1.84-.51-7.19-3.32-7.56.05-3.38,31,12.94,65.14,45.86,72.25,14.08,3,29.55,3.13,43.28-2.09,16.14-6.14,25.63-19.43,34.17-33.82A1.32,1.32,0,0,0,275.54,355.54Z"/><path class="cls-15" d="M269.61,349.59c-28.07-9.76-56.46-19-85.19-26.55-10-2.62-20-5.14-29.91-7.89-1.85-.51-7.2-3.32-7.56.05-3.38,31,12.94,65.14,45.86,72.26,14.08,3,29.55,3.13,43.27-2.09,16.14-6.14,25.64-19.44,34.18-33.83A1.31,1.31,0,0,0,269.61,349.59Z"/><path class="cls-16" d="M166.62,356.73c9.17,11.88,22.82,20.74,37.74,22.84C229,383.05,252.2,368.85,262,347c-25.58-8.78-51.43-17-77.56-23.92-9.79-2.58-19.63-5.05-29.39-7.75C151,328.85,158.72,346.5,166.62,356.73Z"/><path class="cls-15" d="M252,347.45a8.76,8.76,0,0,0-3-2.44c-4.06-2.3-27.86-12.36-28.22-1.12a23.27,23.27,0,0,0,.41,3.71,7.25,7.25,0,0,1-1,4.94A7.51,7.51,0,0,1,217.9,355c-4.57,2.93-12.39.63-16.48-2.1a12.13,12.13,0,0,1-3.89-3.95c-2.6-4.61.64-8,3.77-11.14,1.92-1.92,2.17-4.38-.06-6.23s-5.13-2.76-7.77-3.6a223.34,223.34,0,0,0-22.87-6.24c-3.35-.68-7.17-1.05-8.06,3-3.38,15.59,8.76,31.79,20.56,39.51A55.51,55.51,0,0,0,230.7,370a36.84,36.84,0,0,0,5.84-2.54,40.36,40.36,0,0,0,14.63-13.57c1.1-1.75,2.21-4.4,1-6.33Z"/><path class="cls-17" d="M187,333.2c-2.39.08-6.77-.31-8,2.3a1.22,1.22,0,0,0,.45,1.36c1,.91,2.49.58,3.72.36s2.67-.55,4-.78C189,336.15,188.87,333.14,187,333.2Z"/><path class="cls-17" d="M185.59,342.71a13.47,13.47,0,0,0-3.13,2.74c-.9,1.2.56,2.42,1.73,2a14.16,14.16,0,0,0,3.52-2.28C189.38,343.89,187.26,341.51,185.59,342.71Z"/><path class="cls-17" d="M194.4,355.12c.75-2.16-2.37-3.11-3.29-1.12-.71,1.53-2.05,3.53-1.58,5.27a1.48,1.48,0,0,0,2.08,1C193.33,359.28,193.78,356.9,194.4,355.12Z"/><path class="cls-17" d="M207.54,361.63a1.6,1.6,0,0,0-3-1,14,14,0,0,0-.8,2.75,1.54,1.54,0,0,0,2.79,1A14.3,14.3,0,0,0,207.54,361.63Z"/><path class="cls-17" d="M222.25,363.88a9.4,9.4,0,0,0-1.1-3.46c-.92-2.17-4.34-.51-3.3,1.64a8.59,8.59,0,0,0,1.6,2.77C220.37,365.66,222.27,365.43,222.25,363.88Z"/><path class="cls-17" d="M231.41,356.9a11.4,11.4,0,0,0-3.07-2.13c-1.81-1.09-3.67,1.62-1.86,2.74a11.64,11.64,0,0,0,3.31,1.81A1.52,1.52,0,0,0,231.41,356.9Z"/><path class="cls-17" d="M235,346.5c-1.76-.7-2.65,2-.94,2.78,1.31.57,2.5,1.33,3.79,1.93.82.39,2.27.88,2.75-.26C241.53,348.75,236.35,347,235,346.5Z"/><path class="cls-12" d="M156.34,305.1a7.2,7.2,0,0,0,3.77,3.48,15,15,0,0,0,9.19.65,3.64,3.64,0,0,1,.42.3,12.73,12.73,0,0,0-.22,8.69A10.08,10.08,0,0,0,175,324a7.69,7.69,0,0,0,3.49.44c.36,0,3.43-.67,3.33-1.12.84,4.13,2.13,8.77,6.15,10.72a6.84,6.84,0,0,0,8.37-1.4c3.24,4.11,9,7.47,12.69,0,8.74-17.89,20.52-31.44,34.29-44.72,4-3.88,10.42-9.82,6.6-16-3.4-5.5-12.26-1.83-16.85-.16-8,2.9-15.41,7.13-23.53,9.62-8.56,2.63-17.5,2.56-26.33,3.31-7.37.62-15.44,1.77-21.7,6C156.84,293.87,153.47,299.6,156.34,305.1Z"/><path class="cls-13" d="M199.21,321.24c-.35.64.65,1.1,1,.48a127.38,127.38,0,0,1,43-43.94c.36-.22,0-.74-.37-.54A112.14,112.14,0,0,0,199.21,321.24Z"/><path class="cls-13" d="M172.47,298c5.57-2.31,11.13-2,17-2.69a98.45,98.45,0,0,0,15.95-3.14c2.24-.62,4.44-1.33,6.63-2.07-7,6-17.89,10.85-17.9,21.21a.32.32,0,0,0,.63,0c1.69-10.73,12.22-14.73,19-21.85a196.13,196.13,0,0,0,23.24-10.25c.45-.23.06-1-.39-.8a223,223,0,0,1-22.1,9.62.33.33,0,0,0-.42.06l-.14.15c-3.42,1.22-6.88,2.34-10.4,3.27a96.73,96.73,0,0,1-18,3.09c-4.47.31-9.7-.19-13.35,2.87C172,297.65,172.16,298.09,172.47,298Z"/><path class="cls-13" d="M178,308.16c-.16.23.1.62.35.4,6.15-5.13,11.31-10,18.79-13.23.31-.13.15-.64-.17-.51C189.92,297.56,182.31,301.78,178,308.16Z"/><path class="cls-9" d="M175.88,248.94a11.05,11.05,0,0,0-4.63-8.42,8.62,8.62,0,0,0-10,.69,10.51,10.51,0,0,0-4.2,7.67c-.11,3.76,2.75,7.25,6.1,8.76a9.57,9.57,0,0,0,9.54-.95A8.77,8.77,0,0,0,175.88,248.94Z"/><g class="cls-10"><path class="cls-11" d="M175.88,248.94a11.05,11.05,0,0,0-4.63-8.42,8.62,8.62,0,0,0-10,.69,10.51,10.51,0,0,0-4.2,7.67c-.11,3.76,2.75,7.25,6.1,8.76a9.57,9.57,0,0,0,9.54-.95A8.77,8.77,0,0,0,175.88,248.94Zm-7.25,3.19a5.86,5.86,0,0,1-6-2,4.89,4.89,0,0,1,.42-6.53,4.25,4.25,0,0,1,3.76-1.12,5.44,5.44,0,0,1,4.8,3.5A4.52,4.52,0,0,1,168.63,252.13Z"/></g><path class="cls-9" d="M250,243.73a11,11,0,0,0-4.63-8.42,8.6,8.6,0,0,0-10,.69,10.47,10.47,0,0,0-4.21,7.67c-.11,3.75,2.75,7.25,6.11,8.76a9.57,9.57,0,0,0,9.54-1A8.77,8.77,0,0,0,250,243.73Z"/><g class="cls-10"><path class="cls-11" d="M250,243.73a11,11,0,0,0-4.63-8.42,8.6,8.6,0,0,0-10,.69,10.47,10.47,0,0,0-4.21,7.67c-.11,3.75,2.75,7.25,6.11,8.76a9.57,9.57,0,0,0,9.54-1A8.77,8.77,0,0,0,250,243.73Zm-7.24,3.19a5.91,5.91,0,0,1-6-2,4.89,4.89,0,0,1,.43-6.53A4.24,4.24,0,0,1,241,237.3a5.42,5.42,0,0,1,4.79,3.5A4.52,4.52,0,0,1,242.79,246.92Z"/></g><path class="cls-9" d="M260.41,193.84a11,11,0,0,0-4.62-8.42,8.61,8.61,0,0,0-10,.69,10.52,10.52,0,0,0-4.21,7.67c-.1,3.76,2.75,7.25,6.11,8.76a9.59,9.59,0,0,0,9.54-.94A8.79,8.79,0,0,0,260.41,193.84Z"/><g class="cls-10"><path class="cls-11" d="M260.41,193.84a11,11,0,0,0-4.62-8.42,8.61,8.61,0,0,0-10,.69,10.52,10.52,0,0,0-4.21,7.67c-.1,3.76,2.75,7.25,6.11,8.76a9.59,9.59,0,0,0,9.54-.94A8.79,8.79,0,0,0,260.41,193.84Zm-7.24,3.2a5.89,5.89,0,0,1-6-2,4.89,4.89,0,0,1,.43-6.53,4.24,4.24,0,0,1,3.76-1.12,5.43,5.43,0,0,1,4.79,3.5A4.53,4.53,0,0,1,253.17,197Z"/></g><path class="cls-9" d="M301.17,178.62a11,11,0,0,0-4.63-8.42,8.58,8.58,0,0,0-10,.7,10.45,10.45,0,0,0-4.21,7.66c-.11,3.76,2.75,7.25,6.11,8.76a9.59,9.59,0,0,0,9.54-.94A8.78,8.78,0,0,0,301.17,178.62Z"/><g class="cls-10"><path class="cls-11" d="M301.17,178.62a11,11,0,0,0-4.63-8.42,8.58,8.58,0,0,0-10,.7,10.45,10.45,0,0,0-4.21,7.66c-.11,3.76,2.75,7.25,6.11,8.76a9.59,9.59,0,0,0,9.54-.94A8.78,8.78,0,0,0,301.17,178.62Zm-7.24,3.2a5.89,5.89,0,0,1-6-2,4.89,4.89,0,0,1,.43-6.53,4.24,4.24,0,0,1,3.76-1.12,5.43,5.43,0,0,1,4.79,3.5A4.53,4.53,0,0,1,293.93,181.82Z"/></g><path class="cls-9" d="M328.63,241a11,11,0,0,0-4.62-8.42,8.62,8.62,0,0,0-10,.69,10.46,10.46,0,0,0-4.2,7.67c-.11,3.75,2.74,7.25,6.1,8.76a9.57,9.57,0,0,0,9.54-.95A8.74,8.74,0,0,0,328.63,241Z"/><g class="cls-10"><path class="cls-11" d="M328.63,241a11,11,0,0,0-4.62-8.42,8.62,8.62,0,0,0-10,.69,10.46,10.46,0,0,0-4.2,7.67c-.11,3.75,2.74,7.25,6.1,8.76a9.57,9.57,0,0,0,9.54-.95A8.74,8.74,0,0,0,328.63,241Zm-7.24,3.19a5.88,5.88,0,0,1-6-2,4.89,4.89,0,0,1,.42-6.53,4.24,4.24,0,0,1,3.76-1.12,5.42,5.42,0,0,1,4.79,3.5A4.52,4.52,0,0,1,321.39,244.19Z"/></g><path class="cls-9" d="M291.92,302.37A11,11,0,0,0,287.3,294a8.62,8.62,0,0,0-10,.69,10.46,10.46,0,0,0-4.2,7.67c-.11,3.75,2.75,7.25,6.1,8.76a9.57,9.57,0,0,0,9.54-.95A8.74,8.74,0,0,0,291.92,302.37Z"/><g class="cls-10"><path class="cls-11" d="M291.92,302.37A11,11,0,0,0,287.3,294a8.62,8.62,0,0,0-10,.69,10.46,10.46,0,0,0-4.2,7.67c-.11,3.75,2.75,7.25,6.1,8.76a9.57,9.57,0,0,0,9.54-.95A8.74,8.74,0,0,0,291.92,302.37Zm-7.24,3.19a5.9,5.9,0,0,1-6-2,4.89,4.89,0,0,1,.42-6.53,4.24,4.24,0,0,1,3.76-1.12,5.41,5.41,0,0,1,4.79,3.5A4.51,4.51,0,0,1,284.68,305.56Z"/></g><path class="cls-9" d="M225.93,297.9a11.05,11.05,0,0,0-4.63-8.42,8.62,8.62,0,0,0-10,.69,10.51,10.51,0,0,0-4.2,7.67c-.11,3.76,2.75,7.25,6.11,8.76a9.55,9.55,0,0,0,9.53-1A8.75,8.75,0,0,0,225.93,297.9Z"/><g class="cls-10"><path class="cls-11" d="M225.93,297.9a11.05,11.05,0,0,0-4.63-8.42,8.62,8.62,0,0,0-10,.69,10.51,10.51,0,0,0-4.2,7.67c-.11,3.76,2.75,7.25,6.11,8.76a9.55,9.55,0,0,0,9.53-1A8.75,8.75,0,0,0,225.93,297.9Zm-7.25,3.19a5.88,5.88,0,0,1-6-2,4.89,4.89,0,0,1,.43-6.53,4.23,4.23,0,0,1,3.75-1.12,5.42,5.42,0,0,1,4.8,3.5A4.53,4.53,0,0,1,218.68,301.09Z"/></g><path class="cls-9" d="M348.65,183.66a11,11,0,0,0-4.62-8.42,8.63,8.63,0,0,0-10,.7,10.44,10.44,0,0,0-4.2,7.67c-.11,3.75,2.75,7.25,6.1,8.75a9.55,9.55,0,0,0,9.54-.94A8.75,8.75,0,0,0,348.65,183.66Z"/><g class="cls-10"><path class="cls-11" d="M348.65,183.66a11,11,0,0,0-4.62-8.42,8.63,8.63,0,0,0-10,.7,10.44,10.44,0,0,0-4.2,7.67c-.11,3.75,2.75,7.25,6.1,8.75a9.55,9.55,0,0,0,9.54-.94A8.75,8.75,0,0,0,348.65,183.66Zm-7.24,3.2a5.9,5.9,0,0,1-6-2,4.89,4.89,0,0,1,.42-6.53,4.24,4.24,0,0,1,3.76-1.12,5.39,5.39,0,0,1,4.79,3.49A4.52,4.52,0,0,1,341.41,186.86Z"/></g><path class="cls-18" d="M210.89,228.92c-4.17-20.09-19.55-34.42-39.23-38.94-15.78-3.62-33.87-3.13-47.48,6.57-16,11.37-21.87,31.33-19.28,50.23,4.22,30.74,30.91,51.87,61.74,47.46C197.73,289.8,217.22,259.42,210.89,228.92Zm-42.29,59c-27,5.69-52.06-11.47-57.54-38.39-2.54-12.47-.77-26,5.62-37C136.39,178.34,193.81,192,204,227.2,211.59,253.61,195.6,282.17,168.6,287.87Z"/><path class="cls-18" d="M376.17,150.06a1.48,1.48,0,0,0-2,.5,4.36,4.36,0,0,0-.42,2.51,49.4,49.4,0,0,1-13.12,34.85,46.17,46.17,0,0,1-34.05,14.45,43.62,43.62,0,0,1-33-16.42,46.74,46.74,0,0,1-9.38-24.46A58.86,58.86,0,0,1,288,135.44c.16-.41-1.82-.66-2-.68-1.36-.19-2-.15-2.57,1.22a53.12,53.12,0,0,0-4.66,24.88,49.27,49.27,0,1,0,97.9-9.73,2.11,2.11,0,0,0-.32-.92Z"/><path class="cls-18" d="M228.6,105.38a1.66,1.66,0,0,0-.44,2.29,4.77,4.77,0,0,0,2.33,1.57,54.53,54.53,0,0,1,28.92,29.31,51.59,51.59,0,0,1-1.18,41.1,48.42,48.42,0,0,1-31.66,25.83,51.25,51.25,0,0,1-28.85-1.77,64.51,64.51,0,0,1-24.37-15.87c-.34-.34-1.5,1.54-1.62,1.74-.81,1.29-1,1.92,0,3.17a58.42,58.42,0,0,0,22.81,16.16,55.12,55.12,0,0,0,21.65,3.79,55,55,0,0,0,50.06-73.4,54.89,54.89,0,0,0-36.41-33.89,2.18,2.18,0,0,0-1.07-.1A.86.86,0,0,0,228.6,105.38Z"/><path class="cls-18" d="M235.26,323.86a1.48,1.48,0,0,0,2.07-.28,4.38,4.38,0,0,0,.68-2.46,49.34,49.34,0,0,1,16.69-33.26,46.08,46.08,0,0,1,35.38-10.78,43.66,43.66,0,0,1,31.11,19.81,46.9,46.9,0,0,1,6.77,25.3,58.87,58.87,0,0,1-6.54,25.51c-.2.39,1.74.85,1.94.9,1.34.32,1.94.34,2.69-1a53.11,53.11,0,0,0,7.24-24.25,49.27,49.27,0,1,0-98.37-.65,1.94,1.94,0,0,0,.21.95A1,1,0,0,0,235.26,323.86Z"/><path class="cls-14" d="M282.4,230.42c-.53.25-1,.52-1.55.8-10.85,6.06-10.05,18.67-8,29.5,2,10.56,6.15,20.57,10.37,30.39,4.57,10.64,10,24.59,18.71,32.61,5,4.59,7.42-8.88,7.9-11.3a189.25,189.25,0,0,0,2.93-20.51c1.44-16.48,1.31-34-2.55-50.14C306.92,228,294.56,224.58,282.4,230.42Z"/><path class="cls-19" d="M276.47,224.46c-.53.25-1.05.52-1.55.8-10.85,6.06-10.05,18.68-8,29.5,2,10.56,6.15,20.58,10.37,30.4,4.57,10.64,9.94,24.58,18.71,32.6,5,4.6,7.41-8.87,7.9-11.3a191.21,191.21,0,0,0,2.93-20.5c1.44-16.49,1.31-34-2.55-50.15C301,222.08,288.62,218.62,276.47,224.46Z"/><path class="cls-20" d="M304.27,235.81c-3.29-13.73-15.65-17.19-27.8-11.35-.53.25-1.05.52-1.55.8-10.85,6.06-10.05,18.68-8,29.5,2,10.56,6.15,20.58,10.37,30.4,4.57,10.64,9.94,24.58,18.71,32.6,5,4.6,7.41-8.87,7.9-11.3a191.21,191.21,0,0,0,2.93-20.5C308.26,269.47,308.13,252,304.27,235.81Zm-15.08,62.45c-5.29-2.62-9.17-13.42-11.76-20.52a130.84,130.84,0,0,1-7.23-27c-.86-6.31-.53-14.29,3.07-19.81,3-4.61,11-6.79,15.93-3,4.44,3.39,5.31,10.32,6.14,14.2C297.29,251.21,300,303.64,289.19,298.26Z"/><path class="cls-21" d="M277.56,231.86c-3.35,4.63-3.28,10-3.29,15.52,0,5-.68,12.06,2.92,15.9a1.61,1.61,0,0,0,2.71-.37c1.83-3.87.38-8.27.1-12.42-.37-5.33-1.2-11.6,1-16.63A2,2,0,0,0,277.56,231.86Z"/><path class="cls-21" d="M282.33,269.29c-.57-2.45-4.33-2-3.93.54.27,1.72.88,6.52,3.69,5.87S282.68,270.8,282.33,269.29Z"/><path class="cls-21" d="M284.69,280a1.25,1.25,0,1,0-2.4.67c.71,2.48,1.25,4.91,3.09,6.77.25.25.79.22.81-.22C286.29,284.67,285.32,282.48,284.69,280Z"/><path class="cls-3" d="M132.89,301.39a12.39,12.39,0,0,0-7.42-4.19c-4.57-.84-9.38,1.13-12.59,4.38a13.06,13.06,0,0,0-2.58,13.86,12.4,12.4,0,0,0,18.63,5.27C135,316.37,137.84,307.57,132.89,301.39Zm-6.68,9.44a3.52,3.52,0,0,1-.3.88,4.39,4.39,0,0,1-2.14,2.13,2.93,2.93,0,0,1-4-1.1c-.85-1.66-1.11-5,.82-6.26a4.52,4.52,0,0,1,3.85-.22C126.28,307.07,126.56,309.25,126.21,310.83Z"/><path class="cls-3" d="M279.71,203.1a12.35,12.35,0,0,0-7.41-4.18c-4.57-.85-9.38,1.12-12.59,4.38a13,13,0,0,0-2.58,13.85,12.39,12.39,0,0,0,18.62,5.28C281.79,218.09,284.67,209.28,279.71,203.1ZM273,212.55a4.81,4.81,0,0,1-.3.88,4.47,4.47,0,0,1-2.14,2.13,2.94,2.94,0,0,1-4-1.11c-.85-1.66-1.12-5,.81-6.26a4.57,4.57,0,0,1,3.86-.22C273.11,208.79,273.39,211,273,212.55Z"/><path class="cls-3" d="M270.44,287.58A12.37,12.37,0,0,0,263,283.4c-4.57-.85-9.37,1.12-12.58,4.38a13,13,0,0,0-2.58,13.85,12.39,12.39,0,0,0,18.62,5.27C272.51,302.56,275.39,293.76,270.44,287.58ZM263.77,297a4.81,4.81,0,0,1-.3.88,4.51,4.51,0,0,1-2.14,2.13,2.93,2.93,0,0,1-4-1.11c-.85-1.66-1.12-5,.81-6.26a4.55,4.55,0,0,1,3.85-.22C263.83,293.27,264.12,295.45,263.77,297Z"/><path class="cls-12" d="M210.07,168.42c-1.81-1.9-5.46-6.31-8.68-5.74-3.52.63-3.09,5.81-3.74,8.35-2.74,10.67-11.35.76-16.59-.52-2.83-.69-6.52.05-7.66,3.12-.91,2.43.52,4.86,1.81,6.83.93,1.43,3,3.5,3,5.33.06,5-6.79,2.82-9.33,3-7.66.39-9.18,9.72-3.05,13.7a23.51,23.51,0,0,0,4.8,1.93c1.25.45,4.26,1.17,3.9,3.22a31.55,31.55,0,0,0-2.95,1.64c-2.6,1.82-4.92,4.53-4.72,7.93.55,8.93,12.57,5.25,17.72,4.4,8.27-1.36,14.37.54,20.13,6.58,4.32,4.53,8.6,8.76,14,12C222,242,226.18,244,230,242.6a6,6,0,0,0,4.14-4.94,14.33,14.33,0,0,0-.55-4.64c-2.5-10.87-4.81-21.8-7.71-32.57C222.82,189,218.37,177.19,210.07,168.42Z"/><path class="cls-13" d="M203.05,206.06c-6.56-6.35-16.32-7.48-24.75-9.85a.45.45,0,0,0-.35.83c3.32,1.76,7.08,2.38,10.69,3.28,5.63,1.41,10.51,3.39,14.63,7.63a101.84,101.84,0,0,1,9.55,12.2c1.47,2.07,2.9,4.17,4.32,6.27.52.77,1.67,3.08,2.78,4.86-.76-1-1.53-1.93-1.82-2.24-1.34-1.44-2.68-2.88-4.07-4.27a63.53,63.53,0,0,0-11.11-9.05,32.92,32.92,0,0,0-21.41-5.14.44.44,0,0,0,.1.87c17.26-1.46,30.56,11.44,41,23.49a.31.31,0,0,0,.49-.38C217.51,224.71,211.26,214,203.05,206.06Z"/><path class="cls-13" d="M209.88,202.92c-7.75-8.63-17.17-15.91-26.2-23.15-.36-.29-.76.26-.43.56,8.55,7.73,17.9,14.78,25.69,23.31,8.42,9.2,13.73,20.07,18.71,31.42a.35.35,0,0,0,.65-.26C223.52,223.62,218.08,212.05,209.88,202.92Z"/><path class="cls-13" d="M210.56,183.8c-.3-.28-.84.13-.65.5,3.31,6.48,6,12.3,7.68,19.43,1.49,6.14,2.8,12.27,5.39,18.06.25.57,1.14.22.89-.35-3.06-7.05-4.25-14.63-6.05-22.05C216.49,193.92,214.76,187.76,210.56,183.8Z"/><path class="cls-14" d="M169.46,135c-.56-.18-1.12-.33-1.67-.47-12-3-20.06,6.72-25.94,16-5.73,9.07-9.52,19.23-13.13,29.3-3.91,10.9-9.49,24.76-8.56,36.63.54,6.81,11.45-1.38,13.46-2.82a185.35,185.35,0,0,0,16.1-12.95c12.29-11,24.1-23.88,32.29-38.33C189,150.13,182.31,139.12,169.46,135Z"/><path class="cls-19" d="M163.53,129.08c-.56-.18-1.12-.34-1.67-.48-12.05-3-20.06,6.72-25.94,16-5.74,9.07-9.53,19.23-13.14,29.29-3.91,10.9-9.49,24.77-8.55,36.63.54,6.81,11.45-1.38,13.46-2.82a188.68,188.68,0,0,0,16.1-12.94c12.28-11,24.1-23.89,32.29-38.34C183,144.17,176.38,133.17,163.53,129.08Z"/><path class="cls-20" d="M176.08,156.45c7-12.28.3-23.28-12.55-27.37-.56-.18-1.12-.34-1.67-.48-12.05-3-20.06,6.72-25.94,16-5.74,9.07-9.53,19.23-13.14,29.29-3.91,10.9-9.49,24.77-8.55,36.63.54,6.81,11.45-1.38,13.46-2.82a188.68,188.68,0,0,0,16.1-12.94C156.07,183.75,167.89,170.9,176.08,156.45Zm-53.54,35.21c-2.06-5.54,2.46-16.09,5.41-23,3.63-8.6,7.73-17.05,13.12-24.68,3.67-5.2,9.35-10.8,15.74-12.35,5.33-1.3,12.61,2.57,13.66,8.75.93,5.52-3.15,11.18-5.19,14.58C160.51,162.9,126.78,203,122.54,191.66Z"/><path class="cls-21" d="M159.29,135.23c-5.6,1.07-9.19,5-13,9.06-3.4,3.62-8.71,8.34-8.7,13.61a1.6,1.6,0,0,0,2.23,1.58c4-1.56,5.91-5.76,8.53-9,3.36-4.14,7-9.29,12.07-11.44A2,2,0,0,0,159.29,135.23Z"/><path class="cls-21" d="M137.28,165.81c1.25-2.18-1.78-4.46-3.24-2.3-1,1.44-3.8,5.36-1.31,6.81S136.5,167.15,137.28,165.81Z"/><path class="cls-21" d="M131.69,175.26a1.26,1.26,0,1,0-2.21-1.17c-1.16,2.3-2.43,4.45-2.35,7.07,0,.34.43.7.74.39C129.69,179.76,130.47,177.49,131.69,175.26Z"/><path class="cls-3" d="M176.64,204.59a12.37,12.37,0,0,0-7.42-4.18c-4.57-.85-9.38,1.12-12.59,4.38a13.07,13.07,0,0,0-2.58,13.85,12.4,12.4,0,0,0,18.63,5.27C178.71,219.58,181.59,210.77,176.64,204.59ZM170,214a3.66,3.66,0,0,1-.3.88,4.47,4.47,0,0,1-2.14,2.13,2.93,2.93,0,0,1-4-1.11c-.85-1.66-1.12-5,.81-6.26a4.55,4.55,0,0,1,3.85-.22C170,210.28,170.31,212.46,170,214Z"/><path class="cls-3" d="M230.18,256.34a12.36,12.36,0,0,0-7.41-4.19c-4.57-.84-9.38,1.13-12.59,4.38a13,13,0,0,0-2.58,13.86,12.39,12.39,0,0,0,18.62,5.27C232.26,271.32,235.14,262.52,230.18,256.34Zm-6.67,9.45a4.72,4.72,0,0,1-.3.87,4.39,4.39,0,0,1-2.14,2.13,2.93,2.93,0,0,1-4-1.1c-.85-1.66-1.12-5,.81-6.26a4.54,4.54,0,0,1,3.86-.22C223.58,262,223.86,264.2,223.51,265.79Z"/><path class="cls-3" d="M300.63,145.39a12.42,12.42,0,0,0-7.42-4.18c-4.57-.84-9.38,1.13-12.59,4.38A13.05,13.05,0,0,0,278,159.44a12.4,12.4,0,0,0,18.63,5.28C302.7,160.38,305.58,151.58,300.63,145.39ZM294,154.84a3.52,3.52,0,0,1-.3.88,4.39,4.39,0,0,1-2.14,2.13,2.94,2.94,0,0,1-4-1.11c-.85-1.66-1.11-5,.82-6.25a4.48,4.48,0,0,1,3.85-.22C294,151.08,294.3,153.26,294,154.84Z"/></g></g></svg>